<svg width="15" height="13" viewBox="0 0 15 13" fill="none" xmlns="http://www.w3.org/2000/svg">
<path d="M12.2245 9.43401C12.246 11.0829 9.56034 12.446 6.22593 12.4786C2.89152 12.5112 0.170997 11.2009 0.149479 9.55203C0.12796 7.90312 -0.655897 5.08082 2.67852 5.04823C9.59798 6.4736 12.9993 2.70792 12.2245 9.43401Z" fill="#2A3778"/>
<ellipse cx="6.03778" cy="2.98587" rx="6.03778" ry="2.98587" transform="matrix(0.999952 -0.00977302 0.0130491 0.999915 0.0715332 3.58081)" fill="#CFE0EA"/>
<path d="M13.5099 7.38027C13.2439 9.01315 10.3516 10.0104 7.04958 9.60766C3.74758 9.20493 1.28636 7.55475 1.55228 5.92187C1.81821 4.289 1.53487 1.39669 4.83687 1.79942C11.429 4.11108 15.4473 0.832087 13.5099 7.38027Z" fill="#2A3778"/>
<ellipse cx="6.02309" cy="2.99554" rx="6.02309" ry="2.99554" transform="matrix(0.992644 0.121067 -0.160738 0.986997 2.51562 0.00878906)" fill="#CFE0EA"/>
</svg>
