<svg width="41" height="53" viewBox="0 0 41 53" fill="none" xmlns="http://www.w3.org/2000/svg">
<path d="M0 4.00001C0 1.79087 1.79086 0 4 0H20.5H37C39.2091 0 41 1.79086 41 4V40.1344C41 41.6405 40.154 43.0189 38.8112 43.7009L22.3112 52.0802C21.1729 52.6583 19.8271 52.6583 18.6888 52.0802L2.18881 43.7009C0.845969 43.0189 0 41.6405 0 40.1344V4.00001Z" fill="#CFE0EA"/>
<path d="M27.8634 12.7314C28.6941 11.7752 30.1807 11.6271 31.1837 12.4006V12.4006C32.1868 13.1742 32.3265 14.5765 31.4958 15.5327L17.105 32.0981C16.5613 32.724 15.9188 33.2674 15.2006 33.7088L9.83125 37.0088L12.1715 31.3943C12.4899 30.6305 12.9334 29.9175 13.4857 29.2818L27.8634 12.7314Z" fill="#4E28E9"/>
<mask id="mask0_308_4319" style="mask-type:alpha" maskUnits="userSpaceOnUse" x="9" y="11" width="24" height="27">
<path d="M27.8634 12.7314C28.6941 11.7752 30.1807 11.6271 31.1837 12.4006V12.4006C32.1868 13.1742 32.3265 14.5765 31.4958 15.5327L17.105 32.0981C16.5613 32.724 15.9188 33.2674 15.2006 33.7088L9.83125 37.0088L12.1715 31.3943C12.4899 30.6305 12.9334 29.9175 13.4857 29.2818L27.8634 12.7314Z" fill="#49B0EA"/>
</mask>
<g mask="url(#mask0_308_4319)">
<path d="M13.811 28.3217C14.1286 28.0559 14.5927 28.0279 14.9336 28.2538L17.9936 30.2827C18.435 30.5754 18.4921 31.1765 18.1143 31.5537L16.573 33.093C16.3804 33.2853 16.0479 33.1201 16.1099 32.8629L16.1413 32.7326C16.1779 32.5811 16.0196 32.4569 15.8688 32.5186V32.5186C15.7158 32.5813 15.5564 32.4529 15.5974 32.3001L15.6843 31.9761C15.7605 31.6925 15.4394 31.4691 15.1745 31.6214V31.6214C14.9351 31.759 14.636 31.589 14.6547 31.326L14.6671 31.1514C14.6874 30.8658 14.3557 30.6871 14.1031 30.8475V30.8475C13.8586 31.0027 13.5355 30.8345 13.5382 30.5578V30.5578C13.5406 30.3247 13.3078 30.1538 13.0705 30.2187L12.9092 30.2627C12.398 30.4025 12.0536 29.7927 12.4542 29.4574L13.811 28.3217Z" fill="#4E28E9"/>
<path d="M29.0914 9.75999L34.1988 13.0487L18.6712 33.0978L11.561 28.1621L29.0914 9.75999Z" fill="#4E28E9"/>
<rect x="8.45789" y="34.8809" width="3.12935" height="2.94846" rx="1.47423" fill="#14135B"/>
<mask id="mask1_308_4319" style="mask-type:alpha" maskUnits="userSpaceOnUse" x="11" y="9" width="24" height="25">
<path d="M13.811 28.3217C14.1286 28.0559 14.5927 28.0279 14.9336 28.2538L17.9936 30.2827C18.435 30.5754 18.4921 31.1765 18.1143 31.5537L16.573 33.093C16.3804 33.2853 16.0479 33.1201 16.1099 32.8629L16.1413 32.7326C16.1779 32.5811 16.0196 32.4569 15.8688 32.5186V32.5186C15.7158 32.5813 15.5564 32.4529 15.5974 32.3001L15.6843 31.9761C15.7605 31.6925 15.4394 31.4691 15.1745 31.6214V31.6214C14.9351 31.759 14.636 31.589 14.6547 31.326L14.6671 31.1514C14.6874 30.8658 14.3557 30.6871 14.1031 30.8475V30.8475C13.8586 31.0027 13.5355 30.8345 13.5382 30.5578V30.5578C13.5406 30.3247 13.3078 30.1538 13.0705 30.2187L12.9092 30.2627C12.398 30.4025 12.0536 29.7927 12.4542 29.4574L13.811 28.3217Z" fill="#4E28E9"/>
<path d="M29.0914 9.75999L34.1988 13.0487L18.6712 33.0978L11.561 28.1621L29.0914 9.75999Z" fill="#4E28E9"/>
</mask>
<g mask="url(#mask1_308_4319)">
<rect width="1.52887" height="29.9037" transform="matrix(0.790764 0.612121 -0.657214 0.753704 30.458 11.2932)" fill="#14135B"/>
<rect width="1.00329" height="29.9037" transform="matrix(0.790764 0.612121 -0.657214 0.753704 29.1592 10.762)" fill="#14135B"/>
<rect width="1.36086" height="29.9037" transform="matrix(0.790764 0.612121 -0.657214 0.753704 31.8533 12.5049)" fill="#14135B"/>
</g>
</g>
</svg>
