<svg width="15" height="17" viewBox="0 0 15 17" fill="none" xmlns="http://www.w3.org/2000/svg">
<path d="M2.05383 3.55667C2.05383 3.55667 3.38398 8.2989 4.71412 7.11335C5.65468 6.27503 7.37441 0 7.37441 0C7.37441 0 8.70455 4.74223 10.0347 5.92779C11.6774 7.39188 12.695 1.18556 12.695 1.18556C12.695 1.18556 17.8815 12.3304 12.695 15.4122C9.23729 17.4668 5.41464 17.5908 2.05383 15.4122C-2.56729 12.4168 2.05383 3.55667 2.05383 3.55667Z" fill="#CFE0EA"/>
<path d="M3.38782 9.71436C3.38782 9.71436 5.11587 11.6721 5.84099 11.3334C6.35373 11.0939 7.40795 9.71436 7.40795 9.71436C7.40795 9.71436 8.38677 10.9947 9.11189 11.3334C10.0074 11.7517 11.5651 9.71436 11.5651 9.71436C11.5651 9.71436 13.1359 13.2373 10.3084 14.1179C8.42349 14.7049 6.33958 14.7403 4.50745 14.1179C1.98827 13.262 3.38782 9.71436 3.38782 9.71436Z" fill="#14135B"/>
<rect x="2" y="5" width="11" height="11" rx="5.5" fill="#49B0EA"/>
<rect x="3.5" y="6.5" width="8" height="8" rx="4" fill="#49B0EA" stroke="#14135B"/>
<path d="M9.99996 12C9.99996 12 11.1932 14.5901 12.5 14.5C13.2023 14.4516 13 14 13 14L11.5 15.5C11.5 15.5 9.89541 16.4353 8.99996 16C7.55182 15.296 9.99996 12 9.99996 12Z" fill="#CFE0EA"/>
<path d="M7 8.57143C7 8.25584 7.25584 8 7.57143 8V8C7.88702 8 8.14286 8.25584 8.14286 8.57143V10H9.66928C9.79039 10 9.90738 10.044 9.99853 10.1237V10.1237C10.346 10.4277 10.131 11 9.66928 11H8.09246C7.48911 11 7 10.5109 7 9.90754V8.57143Z" fill="#14135B"/>
<path d="M7 6.5C7 6.22386 7.22386 6 7.5 6V6C7.77614 6 8 6.22386 8 6.5V6.5C8 6.77614 7.77614 7 7.5 7V7V7C7.22386 7 7 6.77614 7 6.5V6.5Z" fill="#14135B"/>
<path d="M3 10.5C3 10.2239 3.22386 10 3.5 10V10C3.77614 10 4 10.2239 4 10.5V10.5C4 10.7761 3.77614 11 3.5 11V11V11C3.22386 11 3 10.7761 3 10.5V10.5Z" fill="#14135B"/>
<path d="M7 14.5C7 14.2239 7.22386 14 7.5 14V14C7.77614 14 8 14.2239 8 14.5V14.5C8 14.7761 7.77614 15 7.5 15V15V15C7.22386 15 7 14.7761 7 14.5V14.5Z" fill="#14135B"/>
<path d="M11 10.5C11 10.2239 11.2239 10 11.5 10V10C11.7761 10 12 10.2239 12 10.5V10.5C12 10.7761 11.7761 11 11.5 11V11V11C11.2239 11 11 10.7761 11 10.5V10.5Z" fill="#14135B"/>
</svg>
