<svg width="15" height="16" viewBox="0 0 15 16" fill="none" xmlns="http://www.w3.org/2000/svg">
<path d="M12.2245 12.8957C12.246 14.5446 9.56034 15.9077 6.22593 15.9403C2.89152 15.9729 0.170997 14.6626 0.149479 13.0137C0.12796 11.3648 -0.655897 8.54249 2.67852 8.5099C9.59798 9.93527 12.9993 6.16959 12.2245 12.8957Z" fill="#14135B"/>
<ellipse cx="6.03778" cy="2.98587" rx="6.03778" ry="2.98587" transform="matrix(0.999952 -0.00977302 0.0130491 0.999915 0.0715332 7.04248)" fill="#49B0EA"/>
<path d="M13.5099 10.8419C13.2439 12.4748 10.3516 13.4721 7.04958 13.0693C3.74758 12.6666 1.28636 11.0164 1.55228 9.38354C1.81821 7.75067 1.53487 4.85836 4.83687 5.26109C11.429 7.57275 15.4473 4.29376 13.5099 10.8419Z" fill="#14135B"/>
<ellipse cx="6.02309" cy="2.99554" rx="6.02309" ry="2.99554" transform="matrix(0.992644 0.121067 -0.160738 0.986997 2.51562 3.47046)" fill="#49B0EA"/>
<path d="M12.1704 6.04297C12.1575 7.69195 9.44383 9.01282 6.10928 8.99323C2.77473 8.97365 0.0820306 7.62101 0.0949658 5.97203C0.107901 4.32305 -0.616862 1.48895 2.71769 1.50854C9.60624 3.04195 13.0857 -0.669901 12.1704 6.04297Z" fill="#14135B"/>
<ellipse cx="6.03784" cy="2.98583" rx="6.03784" ry="2.98583" transform="matrix(0.999983 0.00587465 -0.00784414 0.999969 0.141968 0.000488281)" fill="#49B0EA"/>
</svg>
