<svg width="150" height="150" viewBox="0 0 150 150" fill="none" xmlns="http://www.w3.org/2000/svg">
<g clip-path="url(#clip0_248_10787)">
<g filter="url(#filter0_d_248_10787)">
<path d="M150 75C150 116.421 116.421 150 75 150C33.5786 150 0 116.421 0 75C0 33.5786 33.5786 0 75 0C116.421 0 150 33.5786 150 75Z" fill="white"/>
<path d="M149.5 75C149.5 116.145 116.145 149.5 75 149.5C33.8548 149.5 0.5 116.145 0.5 75C0.5 33.8548 33.8548 0.5 75 0.5C116.145 0.5 149.5 33.8548 149.5 75Z" stroke="#49B0EA"/>
</g>
<mask id="mask0_248_10787" style="mask-type:alpha" maskUnits="userSpaceOnUse" x="0" y="0" width="150" height="150">
<path d="M149.5 75C149.5 116.145 116.145 149.5 75 149.5C33.8548 149.5 0.5 116.145 0.5 75C0.5 33.8548 33.8548 0.5 75 0.5C116.145 0.5 149.5 33.8548 149.5 75Z" fill="#84C6EB" stroke="#49B0EA"/>
</mask>
<g mask="url(#mask0_248_10787)">
<path d="M-5 69.1108H75.5" stroke="#49B0EA"/>
<path d="M74 70.1108L-4 60.1108" stroke="#49B0EA"/>
<path d="M-0.625732 45.9307L75.4603 70.0473" stroke="#49B0EA"/>
<path d="M-2.99951 52.2314L75.0883 70.1732" stroke="#49B0EA"/>
<path d="M75.3528 69.4707L1.84766 39.3627" stroke="#49B0EA"/>
<path d="M8.323 26.946L74.9204 68.4295" stroke="#49B0EA"/>
<path d="M4.24072 32.4612L74.526 68.4623" stroke="#49B0EA"/>
<path d="M74.9812 67.8472L12.5786 21.1971" stroke="#49B0EA"/>
<path d="M20.6201 7.17969L70.1153 65.4171" stroke="#49B0EA"/>
<path d="M16.0068 13.7642L69.7288 65.3372" stroke="#49B0EA"/>
<path d="M70.3679 64.8806L26.5943 2.90763" stroke="#49B0EA"/>
<path d="M39.8359 -3.80103L65.8835 66.0712" stroke="#49B0EA"/>
<path d="M32.9595 -1.64404L65.5465 65.8797" stroke="#49B0EA"/>
<path d="M68.5557 65.0454L47.0037 -6.04996" stroke="#49B0EA"/>
<path d="M61.6599 -8.99976L70.7916 64.02" stroke="#49B0EA"/>
<path d="M54.4084 -8.56201L70.7917 65.0456" stroke="#49B0EA"/>
<path d="M73.0278 65.0454L68.5556 -8.79937" stroke="#49B0EA"/>
<path d="M71.5625 150.698L71.5625 67.1107" stroke="#49B0EA"/>
<path d="M71.0625 67.4285L64.7873 150.698" stroke="#49B0EA"/>
<path d="M51.4253 148.233L74.9395 69.2287" stroke="#49B0EA"/>
<path d="M57.5688 150.697L75.0624 69.6147" stroke="#49B0EA"/>
<path d="M74.3774 69.3401L45.0216 145.664" stroke="#49B0EA"/>
<path d="M32.915 138.94L73.3621 69.789" stroke="#49B0EA"/>
<path d="M38.2925 143.179L73.3942 70.1986" stroke="#49B0EA"/>
<path d="M72.7944 69.7261L27.3098 134.522" stroke="#49B0EA"/>
<path d="M13.6426 126.172L70.4251 74.7785" stroke="#49B0EA"/>
<path d="M20.0625 130.962L70.3471 75.1797" stroke="#49B0EA"/>
<path d="M69.9016 74.5161L9.47683 119.969" stroke="#49B0EA"/>
<path d="M2.93604 106.219L71.0627 79.1725" stroke="#49B0EA"/>
<path d="M5.03906 113.359L70.876 79.5223" stroke="#49B0EA"/>
<path d="M70.0625 76.3979L0.743223 98.7765" stroke="#49B0EA"/>
<path d="M-2.13281 83.5581L69.0627 74.0762" stroke="#49B0EA"/>
<path d="M-1.70605 91.0876L70.0627 74.0761" stroke="#49B0EA"/>
<path d="M70.0625 71.7544L-1.9375 76.3981" stroke="#49B0EA"/>
<path d="M73.0625 68.2681L152 76.1108" stroke="#49B0EA"/>
<path d="M73.0625 68.2681L152 83.1108" stroke="#49B0EA"/>
<path d="M147.688 96.3398L71.6022 68.342" stroke="#49B0EA"/>
<path d="M150.062 89.0251L71.9742 68.1959" stroke="#49B0EA"/>
<path d="M71.7097 69.0115L145.215 103.965" stroke="#49B0EA"/>
<path d="M138.74 118.379L72.1421 70.2198" stroke="#49B0EA"/>
<path d="M142.822 111.977L72.5365 70.1819" stroke="#49B0EA"/>
<path d="M72.0813 70.8962L134.484 125.054" stroke="#49B0EA"/>
<path d="M126.442 141.327L76.9472 73.7173" stroke="#49B0EA"/>
<path d="M131.056 133.683L77.3337 73.8102" stroke="#49B0EA"/>
<path d="M76.6946 74.3406L120.468 146.287" stroke="#49B0EA"/>
<path d="M107.227 154.075L81.179 72.9584" stroke="#49B0EA"/>
<path d="M114.103 151.571L81.516 73.1804" stroke="#49B0EA"/>
<path d="M78.5068 74.1489L100.059 156.686" stroke="#49B0EA"/>
<path d="M85.4026 160.111L76.2709 75.3397" stroke="#49B0EA"/>
<path d="M92.6541 159.602L76.2708 74.1486" stroke="#49B0EA"/>
<path d="M74.0347 74.1489L78.5069 159.878" stroke="#49B0EA"/>
<path d="M75.5 -0.89209V71.1079" stroke="#49B0EA"/>
<path d="M76 70.834L82.2752 -0.892035" stroke="#49B0EA"/>
<path d="M95.6372 1.23145L72.123 69.2835" stroke="#49B0EA"/>
<path d="M89.4937 -0.891602L72.0001 68.9509" stroke="#49B0EA"/>
<path d="M72.6851 69.1875L102.041 3.44379" stroke="#49B0EA"/>
<path d="M114.148 9.23535L73.7006 68.8007" stroke="#49B0EA"/>
<path d="M108.77 5.58398L73.6685 68.4479" stroke="#49B0EA"/>
<path d="M74.2681 68.855L119.753 13.0415" stroke="#49B0EA"/>
<path d="M133.42 20.2339L76.6376 64.5029" stroke="#49B0EA"/>
<path d="M127 16.1079L76.7154 64.1573" stroke="#49B0EA"/>
<path d="M77.1609 64.729L137.586 25.5774" stroke="#49B0EA"/>
<path d="M144.127 37.4209L76.0001 60.7181" stroke="#49B0EA"/>
<path d="M142.024 31.2705L76.1868 60.4167" stroke="#49B0EA"/>
<path d="M77 63.1079L146.319 43.8316" stroke="#49B0EA"/>
<path d="M149.196 56.9404L78 65.1079" stroke="#49B0EA"/>
<path d="M148.769 50.4546L77 65.1079" stroke="#49B0EA"/>
<path d="M77 67.1079L149 63.1079" stroke="#49B0EA"/>
<path d="M78 69.1079H150.062" stroke="#49B0EA"/>
</g>
<path d="M140 75C140 110.899 110.899 140 75 140C39.1015 140 10 110.899 10 75C10 39.1015 39.1015 10 75 10C110.899 10 140 39.1015 140 75Z" fill="#49B0EA"/>
<circle cx="75" cy="75" r="63.5" fill="#49B0EA" stroke="white"/>
<path d="M105.355 80.4219V80.5C105.362 80.6823 105.333 80.832 105.268 80.9492C105.209 81.0664 105.131 81.1673 105.033 81.252C104.936 81.3366 104.825 81.4147 104.701 81.4863C104.577 81.5579 104.454 81.6361 104.33 81.7207V81.7988C104.33 81.9095 104.311 82.0169 104.271 82.1211C104.239 82.2188 104.213 82.3197 104.193 82.4238H104.154C104.057 82.4108 103.969 82.4271 103.891 82.4727C103.819 82.5182 103.747 82.541 103.676 82.541C103.617 82.541 103.555 82.5215 103.49 82.4824C103.425 82.4954 103.383 82.5182 103.363 82.5508C103.344 82.5833 103.324 82.6191 103.305 82.6582C103.285 82.6973 103.256 82.7331 103.217 82.7656C103.178 82.7917 103.109 82.8047 103.012 82.8047C102.979 82.8047 102.94 82.8242 102.895 82.8633C102.855 82.8958 102.81 82.9349 102.758 82.9805C102.712 83.026 102.667 83.0684 102.621 83.1074C102.576 83.153 102.54 83.1823 102.514 83.1953C102.481 83.2148 102.439 83.2246 102.387 83.2246C102.335 83.2311 102.276 83.2344 102.211 83.2344C102.152 83.2409 102.094 83.2441 102.035 83.2441C101.977 83.2507 101.924 83.2572 101.879 83.2637C101.827 83.2767 101.778 83.3027 101.732 83.3418C101.693 83.3809 101.654 83.4004 101.615 83.4004C101.563 83.4004 101.514 83.3874 101.469 83.3613C101.43 83.3353 101.384 83.3223 101.332 83.3223C101.286 83.3223 101.231 83.3353 101.166 83.3613C101.101 83.3874 101.029 83.4167 100.951 83.4492C100.873 83.4818 100.788 83.5111 100.697 83.5371C100.606 83.5632 100.512 83.5762 100.414 83.5762C100.284 83.5762 100.17 83.5566 100.072 83.5176C100.066 83.5176 100.027 83.4948 99.9551 83.4492C99.89 83.4102 99.8053 83.3581 99.7012 83.293C99.6035 83.2279 99.4961 83.1562 99.3789 83.0781C99.2617 83.0065 99.151 82.9382 99.0469 82.873C98.9427 82.8014 98.8548 82.7428 98.7832 82.6973C98.7116 82.6517 98.6693 82.6257 98.6562 82.6191L98.5977 82.4824C98.5065 82.4434 98.4251 82.3945 98.3535 82.3359C98.2884 82.2773 98.2363 82.1992 98.1973 82.1016C98.1322 82.0625 98.0768 82.0137 98.0312 81.9551C97.9857 81.89 97.9401 81.8249 97.8945 81.7598C97.849 81.6947 97.8001 81.6361 97.748 81.584C97.696 81.5254 97.6309 81.4831 97.5527 81.457C97.4941 81.3268 97.4388 81.1966 97.3867 81.0664C97.3346 80.9362 97.2826 80.806 97.2305 80.6758L97.0938 80.5586C97.0807 80.5195 97.0807 80.4837 97.0938 80.4512C97.1068 80.4121 97.1133 80.3763 97.1133 80.3438C97.1133 80.3177 97.0905 80.2624 97.0449 80.1777C97.0059 80.0931 96.9603 80.002 96.9082 79.9043C96.8626 79.8001 96.8171 79.6992 96.7715 79.6016C96.7324 79.5039 96.7129 79.429 96.7129 79.377C96.7129 79.2793 96.7227 79.1849 96.7422 79.0938C96.7617 79.0026 96.7715 78.9115 96.7715 78.8203C96.7715 78.7422 96.7552 78.6673 96.7227 78.5957C96.6901 78.5176 96.6673 78.4395 96.6543 78.3613C96.6348 78.2572 96.6283 78.1497 96.6348 78.0391C96.6478 77.9284 96.6543 77.821 96.6543 77.7168C96.6543 77.6387 96.6413 77.5605 96.6152 77.4824C96.5892 77.4043 96.5762 77.3229 96.5762 77.2383C96.5762 77.1602 96.599 77.0885 96.6445 77.0234C96.6901 76.9583 96.7129 76.89 96.7129 76.8184C96.7129 76.61 96.6836 76.4049 96.625 76.2031C96.5664 75.9948 96.5371 75.7865 96.5371 75.5781C96.5371 75.4154 96.5794 75.2396 96.6641 75.0508C96.7487 74.862 96.8529 74.7188 96.9766 74.6211V74.1621C97.0352 74.1491 97.0775 74.1198 97.1035 74.0742C97.1361 74.0286 97.1621 73.9766 97.1816 73.918C97.2012 73.8594 97.2174 73.8008 97.2305 73.7422C97.25 73.6771 97.2728 73.6217 97.2988 73.5762C97.3314 73.5176 97.3639 73.4688 97.3965 73.4297C97.429 73.3841 97.4583 73.3418 97.4844 73.3027C97.5104 73.2572 97.5299 73.2083 97.543 73.1562C97.556 73.0977 97.5592 73.026 97.5527 72.9414C97.6634 72.9023 97.7643 72.847 97.8555 72.7754C97.9466 72.7038 98.0345 72.6289 98.1191 72.5508C98.2103 72.4727 98.3014 72.3978 98.3926 72.3262C98.4902 72.2546 98.5977 72.1992 98.7148 72.1602C98.7995 72.0495 98.9395 71.9421 99.1348 71.8379C99.3301 71.7272 99.5286 71.6263 99.7305 71.5352C99.9323 71.444 100.111 71.3659 100.268 71.3008C100.424 71.2292 100.505 71.1771 100.512 71.1445C100.694 71.1641 100.883 71.1738 101.078 71.1738C101.273 71.1738 101.469 71.1771 101.664 71.1836C101.859 71.1901 102.051 71.2096 102.24 71.2422C102.429 71.2682 102.608 71.3203 102.777 71.3984C102.797 71.4375 102.82 71.4733 102.846 71.5059C102.878 71.5384 102.908 71.571 102.934 71.6035C102.96 71.6296 102.982 71.6621 103.002 71.7012C103.021 71.7402 103.031 71.7858 103.031 71.8379C103.266 71.929 103.471 72.082 103.646 72.2969C103.829 72.5052 103.979 72.7428 104.096 73.0098C104.219 73.2702 104.311 73.5436 104.369 73.8301C104.428 74.11 104.457 74.3672 104.457 74.6016C104.457 74.6732 104.441 74.7318 104.408 74.7773C104.382 74.8229 104.356 74.8783 104.33 74.9434C104.298 75.002 104.285 75.0671 104.291 75.1387C104.298 75.2103 104.285 75.2721 104.252 75.3242C104.219 75.4219 104.171 75.5098 104.105 75.5879C104.04 75.666 103.982 75.7507 103.93 75.8418C103.812 76.1152 103.689 76.3822 103.559 76.6426C103.428 76.903 103.272 77.1569 103.09 77.4043C103.018 77.4954 102.934 77.5833 102.836 77.668C102.738 77.7526 102.676 77.8568 102.65 77.9805C102.533 77.9805 102.442 78.0098 102.377 78.0684C102.312 78.1204 102.253 78.179 102.201 78.2441C102.149 78.3027 102.09 78.3581 102.025 78.4102C101.96 78.4622 101.869 78.485 101.752 78.4785C101.7 78.5697 101.645 78.651 101.586 78.7227C101.534 78.7878 101.475 78.8594 101.41 78.9375C101.345 78.9375 101.29 78.9538 101.244 78.9863C101.205 79.0124 101.163 79.0449 101.117 79.084C101.072 79.1165 101.023 79.1458 100.971 79.1719C100.919 79.1979 100.854 79.2077 100.775 79.2012C100.717 79.2858 100.648 79.3607 100.57 79.4258C100.492 79.4844 100.411 79.543 100.326 79.6016C100.248 79.6602 100.173 79.7253 100.102 79.7969C100.03 79.862 99.9746 79.9434 99.9355 80.041C99.8639 80.0605 99.7793 80.0801 99.6816 80.0996C99.5905 80.1126 99.5286 80.1582 99.4961 80.2363C99.4961 80.36 99.5221 80.4772 99.5742 80.5879C99.6263 80.6921 99.7272 80.7441 99.877 80.7441C99.929 80.8418 99.9974 80.9264 100.082 80.998C100.167 81.0632 100.251 81.1315 100.336 81.2031C100.499 81.1901 100.661 81.1901 100.824 81.2031C100.987 81.2161 101.15 81.2227 101.312 81.2227C101.508 81.2227 101.661 81.2064 101.771 81.1738C101.882 81.1413 101.97 81.1055 102.035 81.0664C102.107 81.0208 102.165 80.9818 102.211 80.9492C102.263 80.9102 102.325 80.8874 102.396 80.8809C102.488 80.7181 102.582 80.5618 102.68 80.4121C102.777 80.2624 102.914 80.1582 103.09 80.0996C103.142 80.002 103.201 79.9043 103.266 79.8066C103.331 79.7025 103.389 79.5983 103.441 79.4941C103.5 79.3835 103.539 79.2728 103.559 79.1621C103.585 79.0514 103.585 78.9375 103.559 78.8203C103.617 78.7422 103.682 78.6445 103.754 78.5273C103.832 78.4036 103.917 78.2865 104.008 78.1758C104.099 78.0651 104.193 77.9707 104.291 77.8926C104.395 77.8145 104.503 77.7754 104.613 77.7754C104.717 77.7754 104.809 77.8112 104.887 77.8828C104.965 77.9479 105.033 78.0195 105.092 78.0977C105.222 78.1172 105.329 78.166 105.414 78.2441C105.505 78.3158 105.574 78.4036 105.619 78.5078C105.671 78.6055 105.707 78.7161 105.727 78.8398C105.746 78.957 105.756 79.071 105.756 79.1816C105.756 79.3835 105.723 79.6048 105.658 79.8457C105.6 80.0866 105.499 80.2786 105.355 80.4219ZM102.133 73.7812C102.1 73.7878 102.077 73.7845 102.064 73.7715C102.058 73.752 102.051 73.7324 102.045 73.7129C102.038 73.6868 102.032 73.6641 102.025 73.6445C102.019 73.6185 102.009 73.5957 101.996 73.5762C101.964 73.5371 101.895 73.4915 101.791 73.4395C101.693 73.3874 101.583 73.3418 101.459 73.3027C101.342 73.2572 101.221 73.2181 101.098 73.1855C100.98 73.153 100.893 73.1367 100.834 73.1367C100.704 73.1367 100.596 73.1595 100.512 73.2051C100.434 73.2507 100.362 73.2995 100.297 73.3516C100.232 73.4036 100.167 73.4525 100.102 73.498C100.043 73.5436 99.9681 73.5697 99.877 73.5762C99.877 73.6348 99.8607 73.6901 99.8281 73.7422C99.8021 73.7943 99.7663 73.8431 99.7207 73.8887C99.6816 73.9342 99.6393 73.9798 99.5938 74.0254C99.5547 74.071 99.5221 74.1165 99.4961 74.1621C99.444 74.2598 99.4082 74.3672 99.3887 74.4844C99.3691 74.5951 99.3366 74.7057 99.291 74.8164C99.2389 74.9401 99.1836 75.0573 99.125 75.168C99.0664 75.2721 99.0176 75.3893 98.9785 75.5195L98.832 75.6562C98.7995 75.7799 98.7799 75.9102 98.7734 76.0469C98.7734 76.1771 98.7734 76.3073 98.7734 76.4375C98.7734 76.6068 98.793 76.7695 98.832 76.9258C98.8711 77.0755 98.8971 77.235 98.9102 77.4043C98.9102 77.4629 98.9036 77.528 98.8906 77.5996C98.8776 77.6647 98.8711 77.7331 98.8711 77.8047C98.8711 77.8372 98.8711 77.8665 98.8711 77.8926C98.8776 77.9186 98.8906 77.9479 98.9102 77.9805H98.959C99.0306 77.987 99.0924 77.9772 99.1445 77.9512C99.1966 77.9251 99.2454 77.8926 99.291 77.8535C99.3366 77.8145 99.3789 77.7721 99.418 77.7266C99.457 77.6745 99.5026 77.6257 99.5547 77.5801C99.5938 77.5475 99.6361 77.528 99.6816 77.5215C99.7272 77.515 99.7728 77.4954 99.8184 77.4629C99.8509 77.4303 99.8704 77.3978 99.877 77.3652C99.8835 77.3262 99.903 77.2904 99.9355 77.2578C99.9941 77.2057 100.066 77.1602 100.15 77.1211C100.242 77.082 100.323 77.043 100.395 77.0039C100.473 76.9648 100.538 76.916 100.59 76.8574C100.648 76.7988 100.704 76.7402 100.756 76.6816C100.814 76.623 100.876 76.571 100.941 76.5254C101.007 76.4733 101.085 76.4375 101.176 76.418C101.215 76.3724 101.264 76.3008 101.322 76.2031C101.381 76.099 101.439 75.9883 101.498 75.8711C101.557 75.7539 101.609 75.64 101.654 75.5293C101.706 75.4121 101.739 75.321 101.752 75.2559H101.791C101.856 75.2559 101.905 75.2363 101.938 75.1973C101.977 75.1517 102.022 75.1126 102.074 75.0801C102.107 75.0085 102.126 74.9368 102.133 74.8652C102.146 74.7871 102.152 74.7122 102.152 74.6406C102.152 74.4909 102.139 74.3477 102.113 74.2109C102.094 74.0742 102.1 73.931 102.133 73.7812Z" fill="white"/>
<path d="M94.8477 68.5176C94.8477 68.6934 94.8281 68.8659 94.7891 69.0352C94.7565 69.2044 94.7174 69.3737 94.6719 69.543C94.6328 69.7057 94.5938 69.8717 94.5547 70.041C94.5221 70.2038 94.5059 70.3698 94.5059 70.5391C94.5059 70.6888 94.5286 70.832 94.5742 70.9688C94.6198 71.1055 94.6426 71.2487 94.6426 71.3984C94.6426 71.7435 94.61 72.0853 94.5449 72.4238C94.4798 72.7559 94.4473 73.0944 94.4473 73.4395C94.4473 73.6022 94.4635 73.7585 94.4961 73.9082C94.5352 74.0579 94.5645 74.2077 94.584 74.3574C94.597 74.5462 94.597 74.735 94.584 74.9238C94.571 75.1061 94.5645 75.2917 94.5645 75.4805C94.5645 75.513 94.5677 75.5553 94.5742 75.6074C94.5807 75.6595 94.5872 75.7148 94.5938 75.7734C94.6068 75.8255 94.6165 75.8711 94.623 75.9102C94.6361 75.9492 94.6426 75.972 94.6426 75.9785L94.584 76.0371C94.584 76.1217 94.5938 76.2031 94.6133 76.2812C94.6328 76.3594 94.6426 76.4375 94.6426 76.5156C94.6426 76.6654 94.6198 76.8151 94.5742 76.9648C94.5286 77.1081 94.5059 77.2546 94.5059 77.4043C94.5059 77.515 94.5286 77.6224 94.5742 77.7266C94.6198 77.8242 94.6426 77.9284 94.6426 78.0391C94.6426 78.1172 94.6361 78.2246 94.623 78.3613C94.61 78.498 94.5938 78.6413 94.5742 78.791C94.5547 78.9408 94.5384 79.084 94.5254 79.2207C94.5124 79.3574 94.5059 79.4648 94.5059 79.543C94.5059 79.7383 94.5124 79.9076 94.5254 80.0508C94.5384 80.1875 94.5547 80.3079 94.5742 80.4121C94.5938 80.5163 94.61 80.6042 94.623 80.6758C94.6361 80.7409 94.6426 80.8027 94.6426 80.8613C94.6426 80.9199 94.6523 80.9753 94.6719 81.0273C94.6914 81.0794 94.7012 81.1315 94.7012 81.1836C94.7012 81.2812 94.6914 81.3854 94.6719 81.4961C94.6523 81.6003 94.6426 81.7012 94.6426 81.7988C94.6426 81.9095 94.6621 82.0169 94.7012 82.1211C94.7402 82.2253 94.7598 82.3327 94.7598 82.4434C94.7598 82.554 94.7402 82.6615 94.7012 82.7656C94.6621 82.8633 94.623 82.9609 94.584 83.0586C94.5384 83.1562 94.4993 83.2441 94.4668 83.3223C94.4342 83.4069 94.3919 83.4785 94.3398 83.5371C94.2943 83.5957 94.2324 83.6413 94.1543 83.6738C94.0762 83.7064 93.972 83.7227 93.8418 83.7227C93.6335 83.7227 93.4414 83.6868 93.2656 83.6152C93.0898 83.5501 92.9368 83.4557 92.8066 83.332C92.6764 83.2148 92.5723 83.0716 92.4941 82.9023C92.4225 82.7331 92.3867 82.5443 92.3867 82.3359C92.3867 82.2839 92.3965 82.2383 92.416 82.1992C92.4355 82.1602 92.4453 82.1146 92.4453 82.0625C92.4453 82.0104 92.4355 81.9616 92.416 81.916C92.3965 81.8639 92.3867 81.8118 92.3867 81.7598C92.3867 81.7012 92.4062 81.6491 92.4453 81.6035C92.4844 81.5579 92.5039 81.5026 92.5039 81.4375C92.5039 81.3854 92.4941 81.3366 92.4746 81.291C92.4551 81.2454 92.4453 81.2031 92.4453 81.1641C92.4453 81.0664 92.4518 80.9753 92.4648 80.8906C92.4779 80.806 92.4941 80.7116 92.5137 80.6074C92.5332 80.5033 92.5495 80.3828 92.5625 80.2461C92.5755 80.1094 92.582 79.9401 92.582 79.7383C92.582 79.6732 92.5755 79.5788 92.5625 79.4551C92.5495 79.3314 92.5332 79.2012 92.5137 79.0645C92.4941 78.9277 92.4779 78.7975 92.4648 78.6738C92.4518 78.5436 92.4453 78.446 92.4453 78.3809C92.4453 78.3288 92.4551 78.2767 92.4746 78.2246C92.4941 78.1725 92.5039 78.1172 92.5039 78.0586C92.5039 78 92.4844 77.9512 92.4453 77.9121C92.4062 77.873 92.3867 77.8275 92.3867 77.7754C92.3867 77.7038 92.3965 77.6387 92.416 77.5801C92.4355 77.5215 92.4453 77.4629 92.4453 77.4043C92.4453 77.3327 92.4355 77.2676 92.416 77.209C92.3965 77.1439 92.3867 77.082 92.3867 77.0234C92.3867 76.9714 92.4193 76.8932 92.4844 76.7891C92.5495 76.6849 92.582 76.5612 92.582 76.418C92.582 76.2487 92.556 76.0827 92.5039 75.9199C92.4518 75.7572 92.4258 75.5846 92.4258 75.4023C92.4258 75.194 92.4355 74.9824 92.4551 74.7676C92.4746 74.5462 92.4844 74.3314 92.4844 74.123C92.4844 73.9733 92.4811 73.8236 92.4746 73.6738C92.4681 73.5176 92.4648 73.3581 92.4648 73.1953C92.4648 73.1367 92.4453 73.0846 92.4062 73.0391C92.3737 72.9935 92.3672 72.9414 92.3867 72.8828C92.3737 72.8568 92.3672 72.8145 92.3672 72.7559C92.3672 72.6973 92.3835 72.6419 92.416 72.5898C92.4551 72.5378 92.4844 72.4824 92.5039 72.4238C92.4714 72.2936 92.4323 72.1406 92.3867 71.9648C92.3477 71.7826 92.3281 71.6198 92.3281 71.4766C92.3281 71.444 92.3379 71.4147 92.3574 71.3887C92.377 71.3561 92.3867 71.3138 92.3867 71.2617C92.3867 71.1706 92.3639 71.0599 92.3184 70.9297C92.2793 70.793 92.2598 70.6628 92.2598 70.5391C92.2598 70.3242 92.3216 70.1126 92.4453 69.9043C92.3932 69.8001 92.3607 69.6862 92.3477 69.5625C92.3346 69.4388 92.3281 69.3118 92.3281 69.1816C92.3281 69.0449 92.3281 68.9147 92.3281 68.791C92.3346 68.6608 92.3346 68.5371 92.3281 68.4199C92.3672 68.4004 92.39 68.3678 92.3965 68.3223C92.4095 68.2767 92.4193 68.2311 92.4258 68.1855C92.4388 68.1335 92.4551 68.0879 92.4746 68.0488C92.4941 68.0098 92.5299 67.987 92.582 67.9805C92.5951 67.8893 92.5918 67.8047 92.5723 67.7266C92.5527 67.6419 92.543 67.5605 92.543 67.4824C92.543 67.4499 92.5462 67.4238 92.5527 67.4043C92.5592 67.3783 92.569 67.349 92.582 67.3164C92.6927 67.2578 92.8197 67.1927 92.9629 67.1211C93.1126 67.043 93.2526 67.0039 93.3828 67.0039C93.5 67.0039 93.6107 67.0299 93.7148 67.082C93.8255 67.1341 93.9329 67.1992 94.0371 67.2773C94.1413 67.349 94.2422 67.4206 94.3398 67.4922C94.444 67.5638 94.5449 67.6191 94.6426 67.6582C94.6491 67.7363 94.6621 67.8112 94.6816 67.8828C94.7012 67.9479 94.724 68.0163 94.75 68.0879C94.776 68.153 94.7988 68.2214 94.8184 68.293C94.8379 68.3646 94.8477 68.4395 94.8477 68.5176Z" fill="white"/>
<path d="M89.9551 80.1777C89.9551 80.2298 89.9388 80.2689 89.9062 80.2949C89.8802 80.321 89.8509 80.3438 89.8184 80.3633C89.7988 80.4414 89.7891 80.5195 89.7891 80.5977C89.7956 80.6758 89.7826 80.7507 89.75 80.8223C89.7174 80.8939 89.6751 80.9655 89.623 81.0371C89.5775 81.1087 89.5286 81.1803 89.4766 81.252C89.431 81.3236 89.3887 81.3984 89.3496 81.4766C89.3171 81.5547 89.2975 81.6361 89.291 81.7207C89.1999 81.7533 89.1217 81.8021 89.0566 81.8672C88.998 81.9323 88.9395 82.0007 88.8809 82.0723C88.8288 82.1439 88.7734 82.2188 88.7148 82.2969C88.6628 82.375 88.6042 82.4434 88.5391 82.502C88.4154 82.5996 88.2559 82.7038 88.0605 82.8145C87.8652 82.9186 87.696 83.0065 87.5527 83.0781C87.416 83.1367 87.2728 83.179 87.123 83.2051C86.9798 83.2311 86.8333 83.2539 86.6836 83.2734C86.5339 83.293 86.3841 83.3125 86.2344 83.332C86.0911 83.3581 85.9512 83.4004 85.8145 83.459C85.6973 83.3809 85.5736 83.3223 85.4434 83.2832C85.3132 83.2441 85.1797 83.2083 85.043 83.1758C84.9128 83.1497 84.7793 83.1204 84.6426 83.0879C84.5124 83.0553 84.3887 83.0065 84.2715 82.9414C84.1413 82.8763 84.0306 82.7982 83.9395 82.707C83.8548 82.6094 83.7767 82.515 83.7051 82.4238C83.64 82.3262 83.5749 82.2383 83.5098 82.1602C83.4447 82.0755 83.373 82.0169 83.2949 81.9844C83.2819 82.0234 83.2721 82.0658 83.2656 82.1113C83.2591 82.1569 83.2559 82.1992 83.2559 82.2383C83.2559 82.3294 83.2624 82.4173 83.2754 82.502C83.2884 82.5801 83.2949 82.6647 83.2949 82.7559C83.2624 82.7624 83.2233 82.8112 83.1777 82.9023C83.1387 82.9935 83.0833 83.0944 83.0117 83.2051C82.9466 83.3158 82.862 83.4167 82.7578 83.5078C82.6536 83.599 82.5267 83.6445 82.377 83.6445C82.1882 83.6445 82.0059 83.599 81.8301 83.5078C81.6543 83.4232 81.4753 83.3418 81.293 83.2637C81.1823 83.0618 81.1009 82.8503 81.0488 82.6289C80.9967 82.401 80.9707 82.1699 80.9707 81.9355C80.9707 81.7793 80.9805 81.623 81 81.4668C81.026 81.304 81.0391 81.1478 81.0391 80.998C81.0391 80.9004 81.0293 80.8027 81.0098 80.7051C80.9967 80.6074 80.9642 80.5195 80.9121 80.4414C80.9121 80.3112 80.9447 80.1908 81.0098 80.0801C81.0814 79.9694 81.1172 79.849 81.1172 79.7188C81.1172 79.6602 81.1042 79.6048 81.0781 79.5527C81.0521 79.5007 81.0391 79.4421 81.0391 79.377C81.0391 79.2598 81.0716 79.1523 81.1367 79.0547C81.2018 78.9505 81.2344 78.8398 81.2344 78.7227C81.2344 78.6185 81.2246 78.5241 81.2051 78.4395C81.1855 78.3548 81.1758 78.2669 81.1758 78.1758C81.1758 77.9544 81.2083 77.7428 81.2734 77.541C81.3385 77.3327 81.3711 77.1243 81.3711 76.916C81.3711 76.8314 81.3581 76.7467 81.332 76.6621C81.306 76.5775 81.2767 76.4928 81.2441 76.4082C81.2116 76.3236 81.1823 76.2389 81.1562 76.1543C81.1302 76.0697 81.1172 75.9785 81.1172 75.8809C81.1172 75.6921 81.1465 75.5065 81.2051 75.3242C81.2637 75.1354 81.293 74.9466 81.293 74.7578C81.293 74.6667 81.2832 74.582 81.2637 74.5039C81.2441 74.4193 81.2344 74.3314 81.2344 74.2402C81.2344 74.1621 81.2441 74.0872 81.2637 74.0156C81.2832 73.9375 81.293 73.8594 81.293 73.7812C81.293 73.651 81.2734 73.5241 81.2344 73.4004C81.1953 73.2767 81.1758 73.1497 81.1758 73.0195C81.1758 72.8177 81.1986 72.6224 81.2441 72.4336C81.2897 72.2383 81.3125 72.0462 81.3125 71.8574C81.3125 71.6556 81.2897 71.457 81.2441 71.2617C81.1986 71.0599 81.1758 70.8581 81.1758 70.6562C81.1758 70.5586 81.1953 70.4609 81.2344 70.3633C81.2734 70.2591 81.293 70.1517 81.293 70.041C81.293 69.9499 81.2767 69.8652 81.2441 69.7871C81.2116 69.7025 81.1888 69.6211 81.1758 69.543C81.1367 69.3021 81.1107 69.0449 81.0977 68.7715C81.0846 68.498 81.0781 68.2409 81.0781 68C81.0781 67.6549 81.1595 67.4076 81.3223 67.2578C81.4915 67.1016 81.7422 67.0234 82.0742 67.0234C82.263 67.0234 82.4583 67.056 82.6602 67.1211C82.862 67.1797 83.0345 67.2741 83.1777 67.4043C83.2363 67.5801 83.2624 67.7624 83.2559 67.9512C83.2493 68.1335 83.2624 68.3158 83.2949 68.498C83.3145 68.6283 83.3503 68.7585 83.4023 68.8887C83.4609 69.0189 83.4902 69.1491 83.4902 69.2793C83.4902 69.403 83.4674 69.5234 83.4219 69.6406C83.3763 69.7513 83.3535 69.8717 83.3535 70.002C83.3535 70.2103 83.3763 70.4154 83.4219 70.6172C83.4674 70.819 83.4902 71.0208 83.4902 71.2227C83.4902 71.3724 83.4674 71.5189 83.4219 71.6621C83.3763 71.8053 83.3535 71.9518 83.3535 72.1016C83.3535 72.1797 83.3568 72.2383 83.3633 72.2773C83.3698 72.3164 83.3763 72.3522 83.3828 72.3848C83.3893 72.4108 83.3958 72.4434 83.4023 72.4824C83.4089 72.5215 83.4121 72.5801 83.4121 72.6582C83.4121 72.7233 83.4186 72.7721 83.4316 72.8047C83.5293 72.7852 83.6172 72.7428 83.6953 72.6777C83.7799 72.6061 83.8581 72.5312 83.9297 72.4531C84.0013 72.3685 84.0729 72.2904 84.1445 72.2188C84.2227 72.1406 84.3073 72.082 84.3984 72.043C84.4635 72.0104 84.5482 71.9811 84.6523 71.9551C84.763 71.9225 84.877 71.8932 84.9941 71.8672C85.1113 71.8346 85.2253 71.8086 85.3359 71.7891C85.4466 71.763 85.541 71.7402 85.6191 71.7207C85.7689 71.6686 85.9154 71.6035 86.0586 71.5254C86.2018 71.4408 86.3548 71.3984 86.5176 71.3984C86.5306 71.3984 86.5957 71.4147 86.7129 71.4473C86.8301 71.4798 86.9701 71.5189 87.1328 71.5645C87.3021 71.61 87.4811 71.6621 87.6699 71.7207C87.8652 71.7793 88.0475 71.8346 88.2168 71.8867C88.3926 71.9388 88.5423 71.9844 88.666 72.0234C88.7962 72.0625 88.8776 72.0885 88.9102 72.1016C88.9753 72.3424 89.0794 72.554 89.2227 72.7363C89.3659 72.9121 89.5417 73.0651 89.75 73.1953C89.737 73.2279 89.7305 73.2702 89.7305 73.3223C89.7305 73.3809 89.7533 73.459 89.7988 73.5566C89.8509 73.6543 89.9095 73.7617 89.9746 73.8789C90.0397 73.9896 90.1016 74.1035 90.1602 74.2207C90.2188 74.3379 90.2578 74.4453 90.2773 74.543C90.2969 74.6602 90.2969 74.7806 90.2773 74.9043C90.2643 75.028 90.2578 75.1452 90.2578 75.2559C90.2578 75.3991 90.2806 75.5293 90.3262 75.6465C90.3717 75.7637 90.3945 75.8874 90.3945 76.0176C90.3945 76.1283 90.3848 76.2389 90.3652 76.3496C90.3457 76.4603 90.3359 76.571 90.3359 76.6816C90.3359 76.7467 90.3424 76.8314 90.3555 76.9355C90.3685 77.0397 90.3815 77.1504 90.3945 77.2676C90.4076 77.3848 90.4206 77.4987 90.4336 77.6094C90.4466 77.7201 90.4531 77.8112 90.4531 77.8828V77.9219C90.4531 78.0326 90.4271 78.14 90.375 78.2441C90.3229 78.3418 90.2904 78.446 90.2773 78.5566C90.2643 78.6478 90.2546 78.7389 90.248 78.8301C90.248 78.9212 90.2448 79.0156 90.2383 79.1133C90.2318 79.2044 90.222 79.2956 90.209 79.3867C90.196 79.4779 90.1699 79.569 90.1309 79.6602C90.0983 79.7318 90.0723 79.7806 90.0527 79.8066C90.0332 79.8327 90.0137 79.8587 89.9941 79.8848C89.9811 79.9043 89.9714 79.9336 89.9648 79.9727C89.9583 80.0117 89.9551 80.0801 89.9551 80.1777ZM88.3535 76.1445C88.3535 76.0924 88.3535 76.0436 88.3535 75.998C88.3535 75.946 88.347 75.8939 88.334 75.8418C88.3145 75.7702 88.2852 75.7051 88.2461 75.6465C88.207 75.5814 88.1712 75.5195 88.1387 75.4609C88.1061 75.3698 88.0833 75.2819 88.0703 75.1973C88.0638 75.1061 88.0443 75.0215 88.0117 74.9434C87.9792 74.8717 87.9434 74.8066 87.9043 74.748C87.8652 74.6829 87.8359 74.6146 87.8164 74.543C87.7969 74.4714 87.7806 74.3835 87.7676 74.2793C87.7546 74.1686 87.7318 74.0872 87.6992 74.0352C87.6732 74.0026 87.6178 73.957 87.5332 73.8984C87.4551 73.8398 87.3672 73.7845 87.2695 73.7324C87.1719 73.6738 87.0775 73.625 86.9863 73.5859C86.8952 73.5404 86.8301 73.5176 86.791 73.5176C86.5501 73.5176 86.3353 73.5436 86.1465 73.5957C85.9642 73.6478 85.8014 73.7064 85.6582 73.7715C85.515 73.8366 85.3913 73.8952 85.2871 73.9473C85.1895 73.9993 85.1048 74.0286 85.0332 74.0352C85.0007 74.0742 84.9258 74.1719 84.8086 74.3281C84.6914 74.4844 84.5645 74.6504 84.4277 74.8262C84.2975 75.002 84.1771 75.1647 84.0664 75.3145C83.9557 75.4642 83.8906 75.5521 83.8711 75.5781C83.832 75.6628 83.8092 75.7507 83.8027 75.8418C83.8027 75.9329 83.7865 76.0176 83.7539 76.0957C83.7018 76.2064 83.6497 76.291 83.5977 76.3496C83.5521 76.4082 83.5098 76.4668 83.4707 76.5254C83.4316 76.584 83.3991 76.6523 83.373 76.7305C83.347 76.8086 83.334 76.9193 83.334 77.0625C83.334 77.1211 83.334 77.2155 83.334 77.3457C83.3405 77.4694 83.347 77.6159 83.3535 77.7852C83.3665 77.9479 83.3828 78.1237 83.4023 78.3125C83.4284 78.5013 83.4609 78.6868 83.5 78.8691C83.5391 79.0514 83.5879 79.224 83.6465 79.3867C83.7116 79.543 83.7865 79.6732 83.8711 79.7773C83.9167 79.8294 83.9622 79.8587 84.0078 79.8652C84.0599 79.8717 84.1022 79.8913 84.1348 79.9238V80.041C84.252 80.1647 84.3464 80.2624 84.418 80.334C84.4961 80.4056 84.571 80.4674 84.6426 80.5195C84.7207 80.5651 84.8021 80.6107 84.8867 80.6562C84.9779 80.6953 85.0951 80.7507 85.2383 80.8223C85.3034 80.8548 85.3522 80.8841 85.3848 80.9102C85.4173 80.9362 85.4499 80.9622 85.4824 80.9883C85.515 81.0078 85.554 81.0241 85.5996 81.0371C85.6452 81.0501 85.7168 81.0566 85.8145 81.0566C85.9577 81.0566 86.1204 81.0208 86.3027 80.9492C86.4915 80.8776 86.6738 80.7865 86.8496 80.6758C87.0319 80.5586 87.1979 80.4349 87.3477 80.3047C87.5039 80.168 87.6211 80.041 87.6992 79.9238C87.7578 79.8132 87.8001 79.696 87.8262 79.5723C87.8522 79.4421 87.8945 79.3184 87.9531 79.2012L88.0703 79.1426C88.0833 79.11 88.0866 79.0742 88.0801 79.0352C88.0736 78.9961 88.0703 78.957 88.0703 78.918V78.8789C88.1615 78.7682 88.2266 78.5924 88.2656 78.3516C88.3047 78.1042 88.3307 77.8438 88.3438 77.5703C88.3568 77.2904 88.36 77.0202 88.3535 76.7598C88.3535 76.4928 88.3535 76.2878 88.3535 76.1445Z" fill="white"/>
<path d="M78.7051 80.1777C78.7051 80.2298 78.6888 80.2689 78.6562 80.2949C78.6302 80.321 78.6009 80.3438 78.5684 80.3633C78.5488 80.4414 78.5391 80.5195 78.5391 80.5977C78.5456 80.6758 78.5326 80.7507 78.5 80.8223C78.4674 80.8939 78.4251 80.9655 78.373 81.0371C78.3275 81.1087 78.2786 81.1803 78.2266 81.252C78.181 81.3236 78.1387 81.3984 78.0996 81.4766C78.0671 81.5547 78.0475 81.6361 78.041 81.7207C77.9499 81.7533 77.8717 81.8021 77.8066 81.8672C77.748 81.9323 77.6895 82.0007 77.6309 82.0723C77.5788 82.1439 77.5234 82.2188 77.4648 82.2969C77.4128 82.375 77.3542 82.4434 77.2891 82.502C77.1654 82.5996 77.0059 82.7038 76.8105 82.8145C76.6152 82.9186 76.446 83.0065 76.3027 83.0781C76.166 83.1367 76.0228 83.179 75.873 83.2051C75.7298 83.2311 75.5833 83.2539 75.4336 83.2734C75.2839 83.293 75.1341 83.3125 74.9844 83.332C74.8411 83.3581 74.7012 83.4004 74.5645 83.459C74.4473 83.3809 74.3236 83.3223 74.1934 83.2832C74.0632 83.2441 73.9297 83.2083 73.793 83.1758C73.6628 83.1497 73.5293 83.1204 73.3926 83.0879C73.2624 83.0553 73.1387 83.0065 73.0215 82.9414C72.8913 82.8763 72.7806 82.7982 72.6895 82.707C72.6048 82.6094 72.5267 82.515 72.4551 82.4238C72.39 82.3262 72.3249 82.2383 72.2598 82.1602C72.1947 82.0755 72.123 82.0169 72.0449 81.9844C72.0319 82.0234 72.0221 82.0658 72.0156 82.1113C72.0091 82.1569 72.0059 82.1992 72.0059 82.2383C72.0059 82.3294 72.0124 82.4173 72.0254 82.502C72.0384 82.5801 72.0449 82.6647 72.0449 82.7559C72.0124 82.7624 71.9733 82.8112 71.9277 82.9023C71.8887 82.9935 71.8333 83.0944 71.7617 83.2051C71.6966 83.3158 71.612 83.4167 71.5078 83.5078C71.4036 83.599 71.2767 83.6445 71.127 83.6445C70.9382 83.6445 70.7559 83.599 70.5801 83.5078C70.4043 83.4232 70.2253 83.3418 70.043 83.2637C69.9323 83.0618 69.8509 82.8503 69.7988 82.6289C69.7467 82.401 69.7207 82.1699 69.7207 81.9355C69.7207 81.7793 69.7305 81.623 69.75 81.4668C69.776 81.304 69.7891 81.1478 69.7891 80.998C69.7891 80.9004 69.7793 80.8027 69.7598 80.7051C69.7467 80.6074 69.7142 80.5195 69.6621 80.4414C69.6621 80.3112 69.6947 80.1908 69.7598 80.0801C69.8314 79.9694 69.8672 79.849 69.8672 79.7188C69.8672 79.6602 69.8542 79.6048 69.8281 79.5527C69.8021 79.5007 69.7891 79.4421 69.7891 79.377C69.7891 79.2598 69.8216 79.1523 69.8867 79.0547C69.9518 78.9505 69.9844 78.8398 69.9844 78.7227C69.9844 78.6185 69.9746 78.5241 69.9551 78.4395C69.9355 78.3548 69.9258 78.2669 69.9258 78.1758C69.9258 77.9544 69.9583 77.7428 70.0234 77.541C70.0885 77.3327 70.1211 77.1243 70.1211 76.916C70.1211 76.8314 70.1081 76.7467 70.082 76.6621C70.056 76.5775 70.0267 76.4928 69.9941 76.4082C69.9616 76.3236 69.9323 76.2389 69.9062 76.1543C69.8802 76.0697 69.8672 75.9785 69.8672 75.8809C69.8672 75.6921 69.8965 75.5065 69.9551 75.3242C70.0137 75.1354 70.043 74.9466 70.043 74.7578C70.043 74.6667 70.0332 74.582 70.0137 74.5039C69.9941 74.4193 69.9844 74.3314 69.9844 74.2402C69.9844 74.1621 69.9941 74.0872 70.0137 74.0156C70.0332 73.9375 70.043 73.8594 70.043 73.7812C70.043 73.651 70.0234 73.5241 69.9844 73.4004C69.9453 73.2767 69.9258 73.1497 69.9258 73.0195C69.9258 72.8177 69.9486 72.6224 69.9941 72.4336C70.0397 72.2383 70.0625 72.0462 70.0625 71.8574C70.0625 71.6556 70.0397 71.457 69.9941 71.2617C69.9486 71.0599 69.9258 70.8581 69.9258 70.6562C69.9258 70.5586 69.9453 70.4609 69.9844 70.3633C70.0234 70.2591 70.043 70.1517 70.043 70.041C70.043 69.9499 70.0267 69.8652 69.9941 69.7871C69.9616 69.7025 69.9388 69.6211 69.9258 69.543C69.8867 69.3021 69.8607 69.0449 69.8477 68.7715C69.8346 68.498 69.8281 68.2409 69.8281 68C69.8281 67.6549 69.9095 67.4076 70.0723 67.2578C70.2415 67.1016 70.4922 67.0234 70.8242 67.0234C71.013 67.0234 71.2083 67.056 71.4102 67.1211C71.612 67.1797 71.7845 67.2741 71.9277 67.4043C71.9863 67.5801 72.0124 67.7624 72.0059 67.9512C71.9993 68.1335 72.0124 68.3158 72.0449 68.498C72.0645 68.6283 72.1003 68.7585 72.1523 68.8887C72.2109 69.0189 72.2402 69.1491 72.2402 69.2793C72.2402 69.403 72.2174 69.5234 72.1719 69.6406C72.1263 69.7513 72.1035 69.8717 72.1035 70.002C72.1035 70.2103 72.1263 70.4154 72.1719 70.6172C72.2174 70.819 72.2402 71.0208 72.2402 71.2227C72.2402 71.3724 72.2174 71.5189 72.1719 71.6621C72.1263 71.8053 72.1035 71.9518 72.1035 72.1016C72.1035 72.1797 72.1068 72.2383 72.1133 72.2773C72.1198 72.3164 72.1263 72.3522 72.1328 72.3848C72.1393 72.4108 72.1458 72.4434 72.1523 72.4824C72.1589 72.5215 72.1621 72.5801 72.1621 72.6582C72.1621 72.7233 72.1686 72.7721 72.1816 72.8047C72.2793 72.7852 72.3672 72.7428 72.4453 72.6777C72.5299 72.6061 72.6081 72.5312 72.6797 72.4531C72.7513 72.3685 72.8229 72.2904 72.8945 72.2188C72.9727 72.1406 73.0573 72.082 73.1484 72.043C73.2135 72.0104 73.2982 71.9811 73.4023 71.9551C73.513 71.9225 73.627 71.8932 73.7441 71.8672C73.8613 71.8346 73.9753 71.8086 74.0859 71.7891C74.1966 71.763 74.291 71.7402 74.3691 71.7207C74.5189 71.6686 74.6654 71.6035 74.8086 71.5254C74.9518 71.4408 75.1048 71.3984 75.2676 71.3984C75.2806 71.3984 75.3457 71.4147 75.4629 71.4473C75.5801 71.4798 75.7201 71.5189 75.8828 71.5645C76.0521 71.61 76.2311 71.6621 76.4199 71.7207C76.6152 71.7793 76.7975 71.8346 76.9668 71.8867C77.1426 71.9388 77.2923 71.9844 77.416 72.0234C77.5462 72.0625 77.6276 72.0885 77.6602 72.1016C77.7253 72.3424 77.8294 72.554 77.9727 72.7363C78.1159 72.9121 78.2917 73.0651 78.5 73.1953C78.487 73.2279 78.4805 73.2702 78.4805 73.3223C78.4805 73.3809 78.5033 73.459 78.5488 73.5566C78.6009 73.6543 78.6595 73.7617 78.7246 73.8789C78.7897 73.9896 78.8516 74.1035 78.9102 74.2207C78.9688 74.3379 79.0078 74.4453 79.0273 74.543C79.0469 74.6602 79.0469 74.7806 79.0273 74.9043C79.0143 75.028 79.0078 75.1452 79.0078 75.2559C79.0078 75.3991 79.0306 75.5293 79.0762 75.6465C79.1217 75.7637 79.1445 75.8874 79.1445 76.0176C79.1445 76.1283 79.1348 76.2389 79.1152 76.3496C79.0957 76.4603 79.0859 76.571 79.0859 76.6816C79.0859 76.7467 79.0924 76.8314 79.1055 76.9355C79.1185 77.0397 79.1315 77.1504 79.1445 77.2676C79.1576 77.3848 79.1706 77.4987 79.1836 77.6094C79.1966 77.7201 79.2031 77.8112 79.2031 77.8828V77.9219C79.2031 78.0326 79.1771 78.14 79.125 78.2441C79.0729 78.3418 79.0404 78.446 79.0273 78.5566C79.0143 78.6478 79.0046 78.7389 78.998 78.8301C78.998 78.9212 78.9948 79.0156 78.9883 79.1133C78.9818 79.2044 78.972 79.2956 78.959 79.3867C78.946 79.4779 78.9199 79.569 78.8809 79.6602C78.8483 79.7318 78.8223 79.7806 78.8027 79.8066C78.7832 79.8327 78.7637 79.8587 78.7441 79.8848C78.7311 79.9043 78.7214 79.9336 78.7148 79.9727C78.7083 80.0117 78.7051 80.0801 78.7051 80.1777ZM77.1035 76.1445C77.1035 76.0924 77.1035 76.0436 77.1035 75.998C77.1035 75.946 77.097 75.8939 77.084 75.8418C77.0645 75.7702 77.0352 75.7051 76.9961 75.6465C76.957 75.5814 76.9212 75.5195 76.8887 75.4609C76.8561 75.3698 76.8333 75.2819 76.8203 75.1973C76.8138 75.1061 76.7943 75.0215 76.7617 74.9434C76.7292 74.8717 76.6934 74.8066 76.6543 74.748C76.6152 74.6829 76.5859 74.6146 76.5664 74.543C76.5469 74.4714 76.5306 74.3835 76.5176 74.2793C76.5046 74.1686 76.4818 74.0872 76.4492 74.0352C76.4232 74.0026 76.3678 73.957 76.2832 73.8984C76.2051 73.8398 76.1172 73.7845 76.0195 73.7324C75.9219 73.6738 75.8275 73.625 75.7363 73.5859C75.6452 73.5404 75.5801 73.5176 75.541 73.5176C75.3001 73.5176 75.0853 73.5436 74.8965 73.5957C74.7142 73.6478 74.5514 73.7064 74.4082 73.7715C74.265 73.8366 74.1413 73.8952 74.0371 73.9473C73.9395 73.9993 73.8548 74.0286 73.7832 74.0352C73.7507 74.0742 73.6758 74.1719 73.5586 74.3281C73.4414 74.4844 73.3145 74.6504 73.1777 74.8262C73.0475 75.002 72.9271 75.1647 72.8164 75.3145C72.7057 75.4642 72.6406 75.5521 72.6211 75.5781C72.582 75.6628 72.5592 75.7507 72.5527 75.8418C72.5527 75.9329 72.5365 76.0176 72.5039 76.0957C72.4518 76.2064 72.3997 76.291 72.3477 76.3496C72.3021 76.4082 72.2598 76.4668 72.2207 76.5254C72.1816 76.584 72.1491 76.6523 72.123 76.7305C72.097 76.8086 72.084 76.9193 72.084 77.0625C72.084 77.1211 72.084 77.2155 72.084 77.3457C72.0905 77.4694 72.097 77.6159 72.1035 77.7852C72.1165 77.9479 72.1328 78.1237 72.1523 78.3125C72.1784 78.5013 72.2109 78.6868 72.25 78.8691C72.2891 79.0514 72.3379 79.224 72.3965 79.3867C72.4616 79.543 72.5365 79.6732 72.6211 79.7773C72.6667 79.8294 72.7122 79.8587 72.7578 79.8652C72.8099 79.8717 72.8522 79.8913 72.8848 79.9238V80.041C73.002 80.1647 73.0964 80.2624 73.168 80.334C73.2461 80.4056 73.321 80.4674 73.3926 80.5195C73.4707 80.5651 73.5521 80.6107 73.6367 80.6562C73.7279 80.6953 73.8451 80.7507 73.9883 80.8223C74.0534 80.8548 74.1022 80.8841 74.1348 80.9102C74.1673 80.9362 74.1999 80.9622 74.2324 80.9883C74.265 81.0078 74.304 81.0241 74.3496 81.0371C74.3952 81.0501 74.4668 81.0566 74.5645 81.0566C74.7077 81.0566 74.8704 81.0208 75.0527 80.9492C75.2415 80.8776 75.4238 80.7865 75.5996 80.6758C75.7819 80.5586 75.9479 80.4349 76.0977 80.3047C76.2539 80.168 76.3711 80.041 76.4492 79.9238C76.5078 79.8132 76.5501 79.696 76.5762 79.5723C76.6022 79.4421 76.6445 79.3184 76.7031 79.2012L76.8203 79.1426C76.8333 79.11 76.8366 79.0742 76.8301 79.0352C76.8236 78.9961 76.8203 78.957 76.8203 78.918V78.8789C76.9115 78.7682 76.9766 78.5924 77.0156 78.3516C77.0547 78.1042 77.0807 77.8438 77.0938 77.5703C77.1068 77.2904 77.11 77.0202 77.1035 76.7598C77.1035 76.4928 77.1035 76.2878 77.1035 76.1445Z" fill="white"/>
<path d="M67.7188 82.6973C67.7188 82.9056 67.6927 83.1107 67.6406 83.3125C67.5885 83.5143 67.5267 83.7096 67.4551 83.8984C67.3053 83.9831 67.1458 84.0449 66.9766 84.084C66.8138 84.123 66.6478 84.1426 66.4785 84.1426C66.2897 84.1426 66.1042 84.1068 65.9219 84.0352C65.7201 83.7422 65.5833 83.446 65.5117 83.1465C65.4466 82.847 65.4141 82.5247 65.4141 82.1797C65.4141 81.9323 65.4238 81.6816 65.4434 81.4277C65.4694 81.1673 65.4759 80.9102 65.4629 80.6562V80.3633C65.4043 80.3568 65.3587 80.3665 65.3262 80.3926C65.3001 80.4186 65.2773 80.4512 65.2578 80.4902C65.2448 80.5293 65.235 80.5716 65.2285 80.6172C65.222 80.6628 65.2122 80.7051 65.1992 80.7441C65.1406 80.8809 65.0755 81.0208 65.0039 81.1641C64.9388 81.3008 64.877 81.4408 64.8184 81.584C64.7858 81.6556 64.763 81.7337 64.75 81.8184C64.7435 81.8965 64.7207 81.9714 64.6816 82.043C64.6491 82.0951 64.6003 82.1471 64.5352 82.1992C64.4701 82.2513 64.4115 82.3034 64.3594 82.3555C64.2812 82.4401 64.2096 82.5345 64.1445 82.6387C64.0859 82.7363 64.0306 82.8372 63.9785 82.9414C63.9004 83.0781 63.8223 83.1888 63.7441 83.2734C63.666 83.3646 63.5814 83.4395 63.4902 83.498C63.3991 83.5632 63.2982 83.6217 63.1875 83.6738C63.0833 83.7259 62.9596 83.7812 62.8164 83.8398C62.7578 83.8594 62.7025 83.8919 62.6504 83.9375C62.5983 83.9831 62.5462 84.0156 62.4941 84.0352C62.3379 84.0807 62.1556 84.1068 61.9473 84.1133C61.7454 84.1198 61.5632 84.123 61.4004 84.123C61.3158 84.123 61.2051 84.1133 61.0684 84.0938C60.9316 84.0807 60.7884 84.0612 60.6387 84.0352C60.4954 84.0091 60.3587 83.9766 60.2285 83.9375C60.0983 83.9049 59.9941 83.8724 59.916 83.8398C59.8379 83.8073 59.7565 83.7585 59.6719 83.6934C59.5872 83.6283 59.5026 83.5566 59.418 83.4785C59.3333 83.4069 59.252 83.332 59.1738 83.2539C59.0957 83.1823 59.0176 83.1172 58.9395 83.0586C58.9069 82.9674 58.8874 82.873 58.8809 82.7754C58.8743 82.6777 58.8548 82.5801 58.8223 82.4824C58.7897 82.3978 58.7441 82.3229 58.6855 82.2578C58.6335 82.1927 58.5911 82.1211 58.5586 82.043C58.5195 81.8997 58.5 81.7565 58.5 81.6133C58.5 81.4701 58.474 81.3333 58.4219 81.2031C58.3958 81.125 58.36 81.0469 58.3145 80.9688C58.2754 80.8906 58.2331 80.8158 58.1875 80.7441C58.1484 80.666 58.1126 80.5879 58.0801 80.5098C58.054 80.4316 58.041 80.3535 58.041 80.2754C58.041 80.1257 58.0736 79.9824 58.1387 79.8457C58.2038 79.709 58.2363 79.5658 58.2363 79.416C58.2363 79.2858 58.2135 79.1654 58.168 79.0547C58.1224 78.9375 58.0996 78.8138 58.0996 78.6836C58.0996 78.5013 58.1257 78.3288 58.1777 78.166C58.2363 77.9967 58.2754 77.821 58.2949 77.6387C58.2754 77.6257 58.2591 77.6094 58.2461 77.5898C58.2396 77.5638 58.2363 77.541 58.2363 77.5215C58.2363 77.3587 58.2656 77.196 58.3242 77.0332C58.3893 76.8704 58.4219 76.7044 58.4219 76.5352C58.4219 76.418 58.3991 76.3138 58.3535 76.2227C58.3796 76.138 58.4251 76.0632 58.4902 75.998C58.5553 75.9329 58.5977 75.8613 58.6172 75.7832C58.6562 75.64 58.666 75.5 58.6465 75.3633C58.6335 75.2201 58.6432 75.0801 58.6758 74.9434C58.7083 74.8522 58.7539 74.7676 58.8125 74.6895C58.8776 74.6113 58.9199 74.5202 58.9395 74.416C58.9785 74.2663 58.9915 74.1165 58.9785 73.9668C58.972 73.8171 58.959 73.6673 58.9395 73.5176C59.0827 73.3874 59.1803 73.2572 59.2324 73.127C59.2845 72.9902 59.3333 72.86 59.3789 72.7363C59.431 72.6061 59.5059 72.4824 59.6035 72.3652C59.7012 72.248 59.8672 72.1406 60.1016 72.043C60.1406 72.0234 60.1732 71.9941 60.1992 71.9551C60.2253 71.916 60.2643 71.8965 60.3164 71.8965C60.4466 71.8965 60.5898 71.9193 60.7461 71.9648C60.9089 72.0039 61.0618 72.0658 61.2051 72.1504C61.3483 72.2285 61.4655 72.3262 61.5566 72.4434C61.6543 72.5605 61.7031 72.694 61.7031 72.8438C61.7031 73.0781 61.6966 73.2669 61.6836 73.4102C61.6706 73.5534 61.651 73.6706 61.625 73.7617C61.599 73.8529 61.5664 73.9277 61.5273 73.9863C61.4883 74.0449 61.446 74.1068 61.4004 74.1719C61.3548 74.2305 61.3027 74.3053 61.2441 74.3965C61.1921 74.4811 61.1367 74.5951 61.0781 74.7383C60.9544 75.0443 60.8665 75.3665 60.8145 75.7051C60.7624 76.0436 60.6973 76.3691 60.6191 76.6816C60.5996 76.7728 60.5671 76.8607 60.5215 76.9453C60.4759 77.0234 60.4401 77.1081 60.4141 77.1992L60.2383 78.5566C60.2383 78.765 60.248 78.9896 60.2676 79.2305C60.2936 79.4714 60.3229 79.696 60.3555 79.9043C60.3685 79.9434 60.3815 79.9727 60.3945 79.9922C60.4076 80.0117 60.4141 80.0475 60.4141 80.0996C60.4141 80.1191 60.4043 80.1354 60.3848 80.1484C60.3652 80.1615 60.3555 80.1842 60.3555 80.2168C60.3555 80.2493 60.362 80.2982 60.375 80.3633C60.3945 80.4284 60.4173 80.4967 60.4434 80.5684C60.4694 80.64 60.4922 80.7116 60.5117 80.7832C60.5312 80.8483 60.5475 80.9004 60.5605 80.9395C60.5866 81.0697 60.6061 81.1868 60.6191 81.291C60.6387 81.3887 60.6647 81.4766 60.6973 81.5547C60.7298 81.6328 60.7819 81.7077 60.8535 81.7793C60.9316 81.8444 61.0456 81.9062 61.1953 81.9648C61.2799 82.0039 61.3646 82.0462 61.4492 82.0918C61.5404 82.1374 61.6315 82.1602 61.7227 82.1602C61.8594 82.1602 61.9993 82.0885 62.1426 81.9453C62.2858 81.8021 62.4225 81.6361 62.5527 81.4473C62.6895 81.2585 62.8132 81.0664 62.9238 80.8711C63.0345 80.6758 63.1257 80.526 63.1973 80.4219C63.2038 80.3763 63.2233 80.3405 63.2559 80.3145C63.2884 80.2884 63.321 80.2656 63.3535 80.2461C63.3861 80.2201 63.4121 80.194 63.4316 80.168C63.4577 80.1354 63.4674 80.0931 63.4609 80.041C63.5195 79.8978 63.5944 79.7676 63.6855 79.6504C63.7832 79.5332 63.8613 79.403 63.9199 79.2598C63.9655 79.1426 64.0013 79.0286 64.0273 78.918C64.0534 78.8073 64.0827 78.6999 64.1152 78.5957C64.1478 78.4915 64.1868 78.3906 64.2324 78.293C64.278 78.1888 64.3398 78.0846 64.418 77.9805C64.4701 77.9089 64.4896 77.8372 64.4766 77.7656C64.4635 77.6875 64.457 77.6191 64.457 77.5605C64.457 77.5085 64.4701 77.4564 64.4961 77.4043L64.623 77.3164C64.6686 77.2122 64.7077 77.082 64.7402 76.9258C64.7793 76.7695 64.8118 76.6068 64.8379 76.4375C64.8639 76.2682 64.8835 76.1022 64.8965 75.9395C64.9095 75.7767 64.9225 75.6367 64.9355 75.5195C64.9486 75.4805 64.9648 75.4479 64.9844 75.4219C65.0039 75.3958 65.0072 75.3633 64.9941 75.3242C64.9551 75.3047 64.9355 75.2624 64.9355 75.1973C64.9355 75.1517 64.9551 75.0898 64.9941 75.0117C65.0397 74.9336 65.0853 74.8424 65.1309 74.7383C65.1829 74.6341 65.2285 74.5234 65.2676 74.4062C65.3132 74.2826 65.3359 74.1523 65.3359 74.0156C65.3359 73.8984 65.3294 73.7812 65.3164 73.6641C65.3034 73.5404 65.2969 73.4199 65.2969 73.3027C65.2969 73.2441 65.3066 73.1693 65.3262 73.0781C65.3457 72.9805 65.3685 72.8828 65.3945 72.7852C65.4271 72.681 65.4596 72.5833 65.4922 72.4922C65.5247 72.401 65.554 72.3359 65.5801 72.2969C65.6777 72.2578 65.7461 72.222 65.7852 72.1895C65.8242 72.1569 65.8535 72.1276 65.873 72.1016C65.8926 72.0755 65.9056 72.0527 65.9121 72.0332C65.9251 72.0137 65.9479 71.9974 65.9805 71.9844C66.1497 72.0039 66.3353 72.0202 66.5371 72.0332C66.7389 72.0397 66.918 72.082 67.0742 72.1602C67.1393 72.3815 67.2174 72.5964 67.3086 72.8047C67.4062 73.013 67.4551 73.2376 67.4551 73.4785C67.4551 73.6087 67.4453 73.7422 67.4258 73.8789C67.4062 74.0156 67.3965 74.1556 67.3965 74.2988C67.3965 74.429 67.4062 74.556 67.4258 74.6797C67.4453 74.8034 67.4551 74.9303 67.4551 75.0605C67.4551 75.2103 67.4453 75.3568 67.4258 75.5C67.4062 75.6367 67.3965 75.7767 67.3965 75.9199C67.3965 76.0827 67.4095 76.2454 67.4355 76.4082C67.4616 76.5645 67.4746 76.7207 67.4746 76.877C67.4746 76.9486 67.4681 77.0234 67.4551 77.1016C67.4486 77.1732 67.429 77.2448 67.3965 77.3164C67.4746 77.5703 67.5267 77.86 67.5527 78.1855C67.5788 78.5046 67.5951 78.8366 67.6016 79.1816C67.6081 79.5202 67.6048 79.8555 67.5918 80.1875C67.5853 80.5195 67.582 80.8223 67.582 81.0957C67.582 81.1868 67.5951 81.2812 67.6211 81.3789C67.6471 81.4701 67.6602 81.5579 67.6602 81.6426C67.6406 81.6816 67.6211 81.724 67.6016 81.7695C67.5885 81.8151 67.582 81.8574 67.582 81.8965C67.582 82.0267 67.6048 82.1602 67.6504 82.2969C67.696 82.4271 67.7188 82.5605 67.7188 82.6973Z" fill="white"/>
<path d="M56.0488 80.1777C56.0488 80.2298 56.0326 80.2689 56 80.2949C55.974 80.321 55.9447 80.3438 55.9121 80.3633C55.8926 80.4414 55.8828 80.5195 55.8828 80.5977C55.8893 80.6758 55.8763 80.7507 55.8438 80.8223C55.8112 80.8939 55.7689 80.9655 55.7168 81.0371C55.6712 81.1087 55.6224 81.1803 55.5703 81.252C55.5247 81.3236 55.4824 81.3984 55.4434 81.4766C55.4108 81.5547 55.3913 81.6361 55.3848 81.7207C55.2936 81.7533 55.2155 81.8021 55.1504 81.8672C55.0918 81.9323 55.0332 82.0007 54.9746 82.0723C54.9225 82.1439 54.8672 82.2188 54.8086 82.2969C54.7565 82.375 54.6979 82.4434 54.6328 82.502C54.5091 82.5996 54.3496 82.7038 54.1543 82.8145C53.959 82.9186 53.7897 83.0065 53.6465 83.0781C53.5098 83.1367 53.3665 83.179 53.2168 83.2051C53.0736 83.2311 52.9271 83.2539 52.7773 83.2734C52.6276 83.293 52.4779 83.3125 52.3281 83.332C52.1849 83.3581 52.0449 83.4004 51.9082 83.459C51.791 83.3809 51.6673 83.3223 51.5371 83.2832C51.4069 83.2441 51.2734 83.2083 51.1367 83.1758C51.0065 83.1497 50.873 83.1204 50.7363 83.0879C50.6061 83.0553 50.4824 83.0065 50.3652 82.9414C50.235 82.8763 50.1243 82.7982 50.0332 82.707C49.9486 82.6094 49.8704 82.515 49.7988 82.4238C49.7337 82.3262 49.6686 82.2383 49.6035 82.1602C49.5384 82.0755 49.4668 82.0169 49.3887 81.9844C49.3757 82.0234 49.3659 82.0658 49.3594 82.1113C49.3529 82.1569 49.3496 82.1992 49.3496 82.2383C49.3496 82.3294 49.3561 82.4173 49.3691 82.502C49.3822 82.5801 49.3887 82.6647 49.3887 82.7559C49.3561 82.7624 49.3171 82.8112 49.2715 82.9023C49.2324 82.9935 49.1771 83.0944 49.1055 83.2051C49.0404 83.3158 48.9557 83.4167 48.8516 83.5078C48.7474 83.599 48.6204 83.6445 48.4707 83.6445C48.2819 83.6445 48.0996 83.599 47.9238 83.5078C47.748 83.4232 47.569 83.3418 47.3867 83.2637C47.276 83.0618 47.1947 82.8503 47.1426 82.6289C47.0905 82.401 47.0645 82.1699 47.0645 81.9355C47.0645 81.7793 47.0742 81.623 47.0938 81.4668C47.1198 81.304 47.1328 81.1478 47.1328 80.998C47.1328 80.9004 47.123 80.8027 47.1035 80.7051C47.0905 80.6074 47.0579 80.5195 47.0059 80.4414C47.0059 80.3112 47.0384 80.1908 47.1035 80.0801C47.1751 79.9694 47.2109 79.849 47.2109 79.7188C47.2109 79.6602 47.1979 79.6048 47.1719 79.5527C47.1458 79.5007 47.1328 79.4421 47.1328 79.377C47.1328 79.2598 47.1654 79.1523 47.2305 79.0547C47.2956 78.9505 47.3281 78.8398 47.3281 78.7227C47.3281 78.6185 47.3184 78.5241 47.2988 78.4395C47.2793 78.3548 47.2695 78.2669 47.2695 78.1758C47.2695 77.9544 47.3021 77.7428 47.3672 77.541C47.4323 77.3327 47.4648 77.1243 47.4648 76.916C47.4648 76.8314 47.4518 76.7467 47.4258 76.6621C47.3997 76.5775 47.3704 76.4928 47.3379 76.4082C47.3053 76.3236 47.276 76.2389 47.25 76.1543C47.224 76.0697 47.2109 75.9785 47.2109 75.8809C47.2109 75.6921 47.2402 75.5065 47.2988 75.3242C47.3574 75.1354 47.3867 74.9466 47.3867 74.7578C47.3867 74.6667 47.377 74.582 47.3574 74.5039C47.3379 74.4193 47.3281 74.3314 47.3281 74.2402C47.3281 74.1621 47.3379 74.0872 47.3574 74.0156C47.377 73.9375 47.3867 73.8594 47.3867 73.7812C47.3867 73.651 47.3672 73.5241 47.3281 73.4004C47.2891 73.2767 47.2695 73.1497 47.2695 73.0195C47.2695 72.8177 47.2923 72.6224 47.3379 72.4336C47.3835 72.2383 47.4062 72.0462 47.4062 71.8574C47.4062 71.6556 47.3835 71.457 47.3379 71.2617C47.2923 71.0599 47.2695 70.8581 47.2695 70.6562C47.2695 70.5586 47.2891 70.4609 47.3281 70.3633C47.3672 70.2591 47.3867 70.1517 47.3867 70.041C47.3867 69.9499 47.3704 69.8652 47.3379 69.7871C47.3053 69.7025 47.2826 69.6211 47.2695 69.543C47.2305 69.3021 47.2044 69.0449 47.1914 68.7715C47.1784 68.498 47.1719 68.2409 47.1719 68C47.1719 67.6549 47.2533 67.4076 47.416 67.2578C47.5853 67.1016 47.8359 67.0234 48.168 67.0234C48.3568 67.0234 48.5521 67.056 48.7539 67.1211C48.9557 67.1797 49.1283 67.2741 49.2715 67.4043C49.3301 67.5801 49.3561 67.7624 49.3496 67.9512C49.3431 68.1335 49.3561 68.3158 49.3887 68.498C49.4082 68.6283 49.444 68.7585 49.4961 68.8887C49.5547 69.0189 49.584 69.1491 49.584 69.2793C49.584 69.403 49.5612 69.5234 49.5156 69.6406C49.4701 69.7513 49.4473 69.8717 49.4473 70.002C49.4473 70.2103 49.4701 70.4154 49.5156 70.6172C49.5612 70.819 49.584 71.0208 49.584 71.2227C49.584 71.3724 49.5612 71.5189 49.5156 71.6621C49.4701 71.8053 49.4473 71.9518 49.4473 72.1016C49.4473 72.1797 49.4505 72.2383 49.457 72.2773C49.4635 72.3164 49.4701 72.3522 49.4766 72.3848C49.4831 72.4108 49.4896 72.4434 49.4961 72.4824C49.5026 72.5215 49.5059 72.5801 49.5059 72.6582C49.5059 72.7233 49.5124 72.7721 49.5254 72.8047C49.623 72.7852 49.7109 72.7428 49.7891 72.6777C49.8737 72.6061 49.9518 72.5312 50.0234 72.4531C50.0951 72.3685 50.1667 72.2904 50.2383 72.2188C50.3164 72.1406 50.401 72.082 50.4922 72.043C50.5573 72.0104 50.6419 71.9811 50.7461 71.9551C50.8568 71.9225 50.9707 71.8932 51.0879 71.8672C51.2051 71.8346 51.319 71.8086 51.4297 71.7891C51.5404 71.763 51.6348 71.7402 51.7129 71.7207C51.8626 71.6686 52.0091 71.6035 52.1523 71.5254C52.2956 71.4408 52.4486 71.3984 52.6113 71.3984C52.6243 71.3984 52.6895 71.4147 52.8066 71.4473C52.9238 71.4798 53.0638 71.5189 53.2266 71.5645C53.3958 71.61 53.5749 71.6621 53.7637 71.7207C53.959 71.7793 54.1413 71.8346 54.3105 71.8867C54.4863 71.9388 54.6361 71.9844 54.7598 72.0234C54.89 72.0625 54.9714 72.0885 55.0039 72.1016C55.069 72.3424 55.1732 72.554 55.3164 72.7363C55.4596 72.9121 55.6354 73.0651 55.8438 73.1953C55.8307 73.2279 55.8242 73.2702 55.8242 73.3223C55.8242 73.3809 55.847 73.459 55.8926 73.5566C55.9447 73.6543 56.0033 73.7617 56.0684 73.8789C56.1335 73.9896 56.1953 74.1035 56.2539 74.2207C56.3125 74.3379 56.3516 74.4453 56.3711 74.543C56.3906 74.6602 56.3906 74.7806 56.3711 74.9043C56.3581 75.028 56.3516 75.1452 56.3516 75.2559C56.3516 75.3991 56.3743 75.5293 56.4199 75.6465C56.4655 75.7637 56.4883 75.8874 56.4883 76.0176C56.4883 76.1283 56.4785 76.2389 56.459 76.3496C56.4395 76.4603 56.4297 76.571 56.4297 76.6816C56.4297 76.7467 56.4362 76.8314 56.4492 76.9355C56.4622 77.0397 56.4753 77.1504 56.4883 77.2676C56.5013 77.3848 56.5143 77.4987 56.5273 77.6094C56.5404 77.7201 56.5469 77.8112 56.5469 77.8828V77.9219C56.5469 78.0326 56.5208 78.14 56.4688 78.2441C56.4167 78.3418 56.3841 78.446 56.3711 78.5566C56.3581 78.6478 56.3483 78.7389 56.3418 78.8301C56.3418 78.9212 56.3385 79.0156 56.332 79.1133C56.3255 79.2044 56.3158 79.2956 56.3027 79.3867C56.2897 79.4779 56.2637 79.569 56.2246 79.6602C56.1921 79.7318 56.166 79.7806 56.1465 79.8066C56.127 79.8327 56.1074 79.8587 56.0879 79.8848C56.0749 79.9043 56.0651 79.9336 56.0586 79.9727C56.0521 80.0117 56.0488 80.0801 56.0488 80.1777ZM54.4473 76.1445C54.4473 76.0924 54.4473 76.0436 54.4473 75.998C54.4473 75.946 54.4408 75.8939 54.4277 75.8418C54.4082 75.7702 54.3789 75.7051 54.3398 75.6465C54.3008 75.5814 54.265 75.5195 54.2324 75.4609C54.1999 75.3698 54.1771 75.2819 54.1641 75.1973C54.1576 75.1061 54.138 75.0215 54.1055 74.9434C54.0729 74.8717 54.0371 74.8066 53.998 74.748C53.959 74.6829 53.9297 74.6146 53.9102 74.543C53.8906 74.4714 53.8743 74.3835 53.8613 74.2793C53.8483 74.1686 53.8255 74.0872 53.793 74.0352C53.7669 74.0026 53.7116 73.957 53.627 73.8984C53.5488 73.8398 53.4609 73.7845 53.3633 73.7324C53.2656 73.6738 53.1712 73.625 53.0801 73.5859C52.9889 73.5404 52.9238 73.5176 52.8848 73.5176C52.6439 73.5176 52.429 73.5436 52.2402 73.5957C52.0579 73.6478 51.8952 73.7064 51.752 73.7715C51.6087 73.8366 51.485 73.8952 51.3809 73.9473C51.2832 73.9993 51.1986 74.0286 51.127 74.0352C51.0944 74.0742 51.0195 74.1719 50.9023 74.3281C50.7852 74.4844 50.6582 74.6504 50.5215 74.8262C50.3913 75.002 50.2708 75.1647 50.1602 75.3145C50.0495 75.4642 49.9844 75.5521 49.9648 75.5781C49.9258 75.6628 49.903 75.7507 49.8965 75.8418C49.8965 75.9329 49.8802 76.0176 49.8477 76.0957C49.7956 76.2064 49.7435 76.291 49.6914 76.3496C49.6458 76.4082 49.6035 76.4668 49.5645 76.5254C49.5254 76.584 49.4928 76.6523 49.4668 76.7305C49.4408 76.8086 49.4277 76.9193 49.4277 77.0625C49.4277 77.1211 49.4277 77.2155 49.4277 77.3457C49.4342 77.4694 49.4408 77.6159 49.4473 77.7852C49.4603 77.9479 49.4766 78.1237 49.4961 78.3125C49.5221 78.5013 49.5547 78.6868 49.5938 78.8691C49.6328 79.0514 49.6816 79.224 49.7402 79.3867C49.8053 79.543 49.8802 79.6732 49.9648 79.7773C50.0104 79.8294 50.056 79.8587 50.1016 79.8652C50.1536 79.8717 50.196 79.8913 50.2285 79.9238V80.041C50.3457 80.1647 50.4401 80.2624 50.5117 80.334C50.5898 80.4056 50.6647 80.4674 50.7363 80.5195C50.8145 80.5651 50.8958 80.6107 50.9805 80.6562C51.0716 80.6953 51.1888 80.7507 51.332 80.8223C51.3971 80.8548 51.446 80.8841 51.4785 80.9102C51.5111 80.9362 51.5436 80.9622 51.5762 80.9883C51.6087 81.0078 51.6478 81.0241 51.6934 81.0371C51.7389 81.0501 51.8105 81.0566 51.9082 81.0566C52.0514 81.0566 52.2142 81.0208 52.3965 80.9492C52.5853 80.8776 52.7676 80.7865 52.9434 80.6758C53.1257 80.5586 53.2917 80.4349 53.4414 80.3047C53.5977 80.168 53.7148 80.041 53.793 79.9238C53.8516 79.8132 53.8939 79.696 53.9199 79.5723C53.946 79.4421 53.9883 79.3184 54.0469 79.2012L54.1641 79.1426C54.1771 79.11 54.1803 79.0742 54.1738 79.0352C54.1673 78.9961 54.1641 78.957 54.1641 78.918V78.8789C54.2552 78.7682 54.3203 78.5924 54.3594 78.3516C54.3984 78.1042 54.4245 77.8438 54.4375 77.5703C54.4505 77.2904 54.4538 77.0202 54.4473 76.7598C54.4473 76.4928 54.4473 76.2878 54.4473 76.1445Z" fill="white"/>
<mask id="path-81-inside-1_248_10787" fill="white">
<path d="M114.266 66.5745C114.266 69.2071 112.132 71.3412 109.5 71.3412C106.867 71.3412 104.733 69.2071 104.733 66.5745C104.733 63.942 106.867 61.8079 109.5 61.8079C112.132 61.8079 114.266 63.942 114.266 66.5745Z"/>
</mask>
<path d="M114.266 66.5745C114.266 69.2071 112.132 71.3412 109.5 71.3412C106.867 71.3412 104.733 69.2071 104.733 66.5745C104.733 63.942 106.867 61.8079 109.5 61.8079C112.132 61.8079 114.266 63.942 114.266 66.5745Z" fill="white"/>
<path d="M113.266 66.5745C113.266 68.6548 111.58 70.3412 109.5 70.3412V72.3412C112.685 72.3412 115.266 69.7594 115.266 66.5745H113.266ZM109.5 70.3412C107.42 70.3412 105.733 68.6548 105.733 66.5745H103.733C103.733 69.7594 106.315 72.3412 109.5 72.3412V70.3412ZM105.733 66.5745C105.733 64.4943 107.42 62.8079 109.5 62.8079V60.8079C106.315 60.8079 103.733 63.3897 103.733 66.5745H105.733ZM109.5 62.8079C111.58 62.8079 113.266 64.4943 113.266 66.5745H115.266C115.266 63.3897 112.685 60.8079 109.5 60.8079V62.8079Z" fill="white" mask="url(#path-81-inside-1_248_10787)"/>
<circle cx="109.5" cy="66.5742" r="4.19333" fill="white" stroke="white"/>
<mask id="path-84-outside-2_248_10787" maskUnits="userSpaceOnUse" x="107.4" y="63.3" width="5" height="7" fill="black">
<rect fill="white" x="107.4" y="63.3" width="5" height="7"/>
<path d="M110.315 66.3355C110.241 66.3355 110.173 66.3215 110.111 66.2937C110.052 66.2659 109.996 66.2389 109.944 66.2126V66.1987C109.946 66.157 109.934 66.116 109.908 66.0758C109.882 66.0356 109.846 66.0001 109.801 65.9692C109.756 65.9367 109.703 65.9112 109.641 65.8927C109.579 65.8726 109.514 65.8625 109.445 65.8625C109.39 65.8625 109.342 65.8741 109.302 65.8973C109.264 65.9205 109.232 65.9491 109.206 65.9831C109.18 66.0155 109.161 66.0503 109.149 66.0874C109.137 66.1245 109.131 66.157 109.131 66.1848C109.131 66.2327 109.153 66.2713 109.199 66.3007C109.244 66.33 109.297 66.3548 109.359 66.3749C109.423 66.395 109.489 66.4127 109.555 66.4282C109.624 66.4421 109.682 66.4575 109.73 66.4745C109.77 66.4885 109.806 66.5062 109.837 66.5279C109.868 66.548 109.903 66.5665 109.944 66.5835C109.984 66.6005 110.026 66.6144 110.069 66.6252C110.111 66.6361 110.154 66.6476 110.197 66.66C110.209 66.6816 110.231 66.7002 110.265 66.7156C110.298 66.7296 110.324 66.7473 110.343 66.769C110.35 66.7767 110.361 66.7952 110.375 66.8246C110.392 66.854 110.407 66.8856 110.422 66.9196C110.438 66.9521 110.453 66.9838 110.464 67.0147C110.476 67.0441 110.482 67.0634 110.482 67.0727C110.482 67.1005 110.475 67.1314 110.461 67.1654C110.447 67.1994 110.429 67.2342 110.407 67.2697C110.386 67.3037 110.362 67.3369 110.336 67.3694C110.312 67.4018 110.291 67.4312 110.272 67.4575C110.236 67.4606 110.205 67.4683 110.179 67.4807C110.155 67.4915 110.132 67.5038 110.108 67.5178C110.084 67.5301 110.058 67.5409 110.029 67.5502C110.001 67.5595 109.964 67.5633 109.919 67.5618C109.878 67.5788 109.84 67.5981 109.805 67.6198C109.771 67.6398 109.732 67.6568 109.687 67.6708V67.9605C109.687 68.0749 109.685 68.1877 109.68 68.299C109.678 68.4103 109.67 68.5223 109.659 68.6351C109.58 68.6784 109.49 68.7 109.388 68.7C109.314 68.7 109.245 68.6877 109.181 68.663C109.117 68.6382 109.071 68.6035 109.045 68.5586C109.062 68.4999 109.071 68.4381 109.074 68.3732C109.076 68.3098 109.079 68.2457 109.081 68.1808C109.086 68.1159 109.094 68.0533 109.106 67.993C109.12 67.9312 109.149 67.874 109.191 67.8214C109.18 67.8137 109.171 67.8052 109.167 67.7959C109.162 67.7851 109.159 67.7751 109.159 67.7658C109.159 67.7457 109.164 67.7272 109.174 67.7102C109.186 67.6916 109.199 67.6738 109.213 67.6568C109.208 67.6507 109.182 67.6391 109.134 67.6221C109.089 67.6051 109.038 67.5873 108.981 67.5688C108.924 67.5502 108.869 67.534 108.817 67.5201C108.765 67.5062 108.732 67.4992 108.717 67.4992C108.71 67.476 108.695 67.4575 108.671 67.4436C108.647 67.4281 108.622 67.4127 108.596 67.3972C108.572 67.3802 108.551 67.3601 108.532 67.3369C108.513 67.3122 108.503 67.279 108.503 67.2372C108.503 67.2187 108.504 67.1994 108.507 67.1793C108.512 67.1592 108.52 67.1391 108.532 67.119C108.57 67.0927 108.614 67.0727 108.664 67.0587C108.716 67.0448 108.77 67.0379 108.824 67.0379C108.896 67.0379 108.961 67.0479 109.02 67.068C109.082 67.0866 109.139 67.1074 109.191 67.1306C109.244 67.1538 109.293 67.1754 109.338 67.1955C109.383 67.2141 109.426 67.2233 109.466 67.2233C109.535 67.2233 109.592 67.211 109.637 67.1862C109.685 67.16 109.708 67.1252 109.708 67.0819C109.708 67.0433 109.7 67.0139 109.684 66.9938C109.667 66.9737 109.647 66.9575 109.623 66.9451C109.599 66.9328 109.573 66.9212 109.544 66.9104C109.518 66.8996 109.496 66.8826 109.477 66.8594C109.432 66.8547 109.391 66.8478 109.355 66.8385C109.32 66.8292 109.279 66.8246 109.234 66.8246C109.213 66.8153 109.197 66.8068 109.188 66.7991C109.181 66.7898 109.174 66.7821 109.167 66.7759C109.159 66.7697 109.149 66.7651 109.134 66.762C109.12 66.7574 109.098 66.7551 109.067 66.7551C109.057 66.7551 109.044 66.752 109.027 66.7458C109.011 66.7396 108.992 66.7326 108.97 66.7249C108.949 66.7156 108.925 66.7079 108.899 66.7017C108.875 66.694 108.853 66.6894 108.831 66.6878C108.805 66.6523 108.767 66.6221 108.717 66.5974C108.667 66.5727 108.621 66.5472 108.578 66.5209V66.507C108.581 66.4776 108.572 66.4514 108.553 66.4282C108.537 66.4035 108.516 66.3787 108.493 66.354C108.471 66.3293 108.45 66.303 108.428 66.2752C108.409 66.2458 108.4 66.211 108.4 66.1709C108.4 66.123 108.408 66.0766 108.425 66.0318C108.442 65.9854 108.453 65.9398 108.461 65.895C108.463 65.8734 108.47 65.8556 108.482 65.8417C108.496 65.8262 108.51 65.8123 108.525 65.7999C108.541 65.786 108.554 65.7714 108.564 65.7559C108.576 65.7389 108.581 65.7188 108.578 65.6956C108.645 65.6724 108.699 65.6454 108.742 65.6145C108.785 65.5836 108.828 65.555 108.871 65.5287C108.913 65.5024 108.963 65.4808 109.02 65.4638C109.08 65.4468 109.158 65.4414 109.256 65.4476C109.275 65.4337 109.284 65.4182 109.284 65.4012C109.284 65.3827 109.284 65.3633 109.284 65.3433C109.284 65.2583 109.288 65.1725 109.295 65.0859C109.302 64.9978 109.306 64.9097 109.306 64.8217C109.306 64.7737 109.301 64.7258 109.291 64.6779C109.282 64.6285 109.277 64.5798 109.277 64.5319C109.277 64.467 109.303 64.4121 109.355 64.3673C109.41 64.3225 109.491 64.3 109.598 64.3C109.693 64.3 109.76 64.3085 109.798 64.3255C109.838 64.341 109.865 64.3611 109.88 64.3858C109.896 64.4106 109.909 64.4384 109.919 64.4693C109.928 64.5002 109.951 64.5303 109.987 64.5597C109.96 64.6138 109.947 64.6671 109.947 64.7196C109.95 64.7706 109.949 64.8255 109.944 64.8842C109.944 64.8982 109.939 64.9128 109.93 64.9283C109.922 64.9437 109.919 64.9592 109.919 64.9747C109.919 64.9917 109.922 65.0079 109.93 65.0233C109.939 65.0372 109.944 65.0527 109.944 65.0697C109.944 65.0821 109.937 65.0967 109.922 65.1137C109.911 65.1292 109.902 65.1439 109.897 65.1578C109.886 65.2026 109.881 65.249 109.883 65.2969C109.888 65.3433 109.883 65.3888 109.869 65.4337C109.878 65.4429 109.9 65.4545 109.933 65.4684C109.966 65.4823 110.003 65.497 110.044 65.5125C110.086 65.5264 110.127 65.5403 110.165 65.5542C110.203 65.5666 110.231 65.5774 110.25 65.5867C110.26 65.5913 110.271 65.599 110.283 65.6098C110.294 65.6207 110.306 65.6323 110.318 65.6446C110.33 65.657 110.342 65.6693 110.354 65.6817C110.368 65.6941 110.38 65.7034 110.39 65.7095C110.435 65.7451 110.47 65.7752 110.496 65.7999C110.525 65.8231 110.546 65.8471 110.561 65.8718C110.577 65.895 110.588 65.9228 110.593 65.9553C110.598 65.9862 110.6 66.0264 110.6 66.0758C110.6 66.1067 110.598 66.1361 110.593 66.1639C110.588 66.1917 110.576 66.2188 110.557 66.245C110.552 66.2512 110.538 66.2559 110.514 66.259C110.491 66.262 110.473 66.2675 110.461 66.2752C110.447 66.2845 110.437 66.293 110.432 66.3007C110.428 66.3084 110.422 66.3146 110.414 66.3192C110.41 66.3239 110.4 66.3277 110.386 66.3308C110.372 66.3339 110.348 66.3355 110.315 66.3355Z"/>
</mask>
<path d="M110.315 66.3355C110.241 66.3355 110.173 66.3215 110.111 66.2937C110.052 66.2659 109.996 66.2389 109.944 66.2126V66.1987C109.946 66.157 109.934 66.116 109.908 66.0758C109.882 66.0356 109.846 66.0001 109.801 65.9692C109.756 65.9367 109.703 65.9112 109.641 65.8927C109.579 65.8726 109.514 65.8625 109.445 65.8625C109.39 65.8625 109.342 65.8741 109.302 65.8973C109.264 65.9205 109.232 65.9491 109.206 65.9831C109.18 66.0155 109.161 66.0503 109.149 66.0874C109.137 66.1245 109.131 66.157 109.131 66.1848C109.131 66.2327 109.153 66.2713 109.199 66.3007C109.244 66.33 109.297 66.3548 109.359 66.3749C109.423 66.395 109.489 66.4127 109.555 66.4282C109.624 66.4421 109.682 66.4575 109.73 66.4745C109.77 66.4885 109.806 66.5062 109.837 66.5279C109.868 66.548 109.903 66.5665 109.944 66.5835C109.984 66.6005 110.026 66.6144 110.069 66.6252C110.111 66.6361 110.154 66.6476 110.197 66.66C110.209 66.6816 110.231 66.7002 110.265 66.7156C110.298 66.7296 110.324 66.7473 110.343 66.769C110.35 66.7767 110.361 66.7952 110.375 66.8246C110.392 66.854 110.407 66.8856 110.422 66.9196C110.438 66.9521 110.453 66.9838 110.464 67.0147C110.476 67.0441 110.482 67.0634 110.482 67.0727C110.482 67.1005 110.475 67.1314 110.461 67.1654C110.447 67.1994 110.429 67.2342 110.407 67.2697C110.386 67.3037 110.362 67.3369 110.336 67.3694C110.312 67.4018 110.291 67.4312 110.272 67.4575C110.236 67.4606 110.205 67.4683 110.179 67.4807C110.155 67.4915 110.132 67.5038 110.108 67.5178C110.084 67.5301 110.058 67.5409 110.029 67.5502C110.001 67.5595 109.964 67.5633 109.919 67.5618C109.878 67.5788 109.84 67.5981 109.805 67.6198C109.771 67.6398 109.732 67.6568 109.687 67.6708V67.9605C109.687 68.0749 109.685 68.1877 109.68 68.299C109.678 68.4103 109.67 68.5223 109.659 68.6351C109.58 68.6784 109.49 68.7 109.388 68.7C109.314 68.7 109.245 68.6877 109.181 68.663C109.117 68.6382 109.071 68.6035 109.045 68.5586C109.062 68.4999 109.071 68.4381 109.074 68.3732C109.076 68.3098 109.079 68.2457 109.081 68.1808C109.086 68.1159 109.094 68.0533 109.106 67.993C109.12 67.9312 109.149 67.874 109.191 67.8214C109.18 67.8137 109.171 67.8052 109.167 67.7959C109.162 67.7851 109.159 67.7751 109.159 67.7658C109.159 67.7457 109.164 67.7272 109.174 67.7102C109.186 67.6916 109.199 67.6738 109.213 67.6568C109.208 67.6507 109.182 67.6391 109.134 67.6221C109.089 67.6051 109.038 67.5873 108.981 67.5688C108.924 67.5502 108.869 67.534 108.817 67.5201C108.765 67.5062 108.732 67.4992 108.717 67.4992C108.71 67.476 108.695 67.4575 108.671 67.4436C108.647 67.4281 108.622 67.4127 108.596 67.3972C108.572 67.3802 108.551 67.3601 108.532 67.3369C108.513 67.3122 108.503 67.279 108.503 67.2372C108.503 67.2187 108.504 67.1994 108.507 67.1793C108.512 67.1592 108.52 67.1391 108.532 67.119C108.57 67.0927 108.614 67.0727 108.664 67.0587C108.716 67.0448 108.77 67.0379 108.824 67.0379C108.896 67.0379 108.961 67.0479 109.02 67.068C109.082 67.0866 109.139 67.1074 109.191 67.1306C109.244 67.1538 109.293 67.1754 109.338 67.1955C109.383 67.2141 109.426 67.2233 109.466 67.2233C109.535 67.2233 109.592 67.211 109.637 67.1862C109.685 67.16 109.708 67.1252 109.708 67.0819C109.708 67.0433 109.7 67.0139 109.684 66.9938C109.667 66.9737 109.647 66.9575 109.623 66.9451C109.599 66.9328 109.573 66.9212 109.544 66.9104C109.518 66.8996 109.496 66.8826 109.477 66.8594C109.432 66.8547 109.391 66.8478 109.355 66.8385C109.32 66.8292 109.279 66.8246 109.234 66.8246C109.213 66.8153 109.197 66.8068 109.188 66.7991C109.181 66.7898 109.174 66.7821 109.167 66.7759C109.159 66.7697 109.149 66.7651 109.134 66.762C109.12 66.7574 109.098 66.7551 109.067 66.7551C109.057 66.7551 109.044 66.752 109.027 66.7458C109.011 66.7396 108.992 66.7326 108.97 66.7249C108.949 66.7156 108.925 66.7079 108.899 66.7017C108.875 66.694 108.853 66.6894 108.831 66.6878C108.805 66.6523 108.767 66.6221 108.717 66.5974C108.667 66.5727 108.621 66.5472 108.578 66.5209V66.507C108.581 66.4776 108.572 66.4514 108.553 66.4282C108.537 66.4035 108.516 66.3787 108.493 66.354C108.471 66.3293 108.45 66.303 108.428 66.2752C108.409 66.2458 108.4 66.211 108.4 66.1709C108.4 66.123 108.408 66.0766 108.425 66.0318C108.442 65.9854 108.453 65.9398 108.461 65.895C108.463 65.8734 108.47 65.8556 108.482 65.8417C108.496 65.8262 108.51 65.8123 108.525 65.7999C108.541 65.786 108.554 65.7714 108.564 65.7559C108.576 65.7389 108.581 65.7188 108.578 65.6956C108.645 65.6724 108.699 65.6454 108.742 65.6145C108.785 65.5836 108.828 65.555 108.871 65.5287C108.913 65.5024 108.963 65.4808 109.02 65.4638C109.08 65.4468 109.158 65.4414 109.256 65.4476C109.275 65.4337 109.284 65.4182 109.284 65.4012C109.284 65.3827 109.284 65.3633 109.284 65.3433C109.284 65.2583 109.288 65.1725 109.295 65.0859C109.302 64.9978 109.306 64.9097 109.306 64.8217C109.306 64.7737 109.301 64.7258 109.291 64.6779C109.282 64.6285 109.277 64.5798 109.277 64.5319C109.277 64.467 109.303 64.4121 109.355 64.3673C109.41 64.3225 109.491 64.3 109.598 64.3C109.693 64.3 109.76 64.3085 109.798 64.3255C109.838 64.341 109.865 64.3611 109.88 64.3858C109.896 64.4106 109.909 64.4384 109.919 64.4693C109.928 64.5002 109.951 64.5303 109.987 64.5597C109.96 64.6138 109.947 64.6671 109.947 64.7196C109.95 64.7706 109.949 64.8255 109.944 64.8842C109.944 64.8982 109.939 64.9128 109.93 64.9283C109.922 64.9437 109.919 64.9592 109.919 64.9747C109.919 64.9917 109.922 65.0079 109.93 65.0233C109.939 65.0372 109.944 65.0527 109.944 65.0697C109.944 65.0821 109.937 65.0967 109.922 65.1137C109.911 65.1292 109.902 65.1439 109.897 65.1578C109.886 65.2026 109.881 65.249 109.883 65.2969C109.888 65.3433 109.883 65.3888 109.869 65.4337C109.878 65.4429 109.9 65.4545 109.933 65.4684C109.966 65.4823 110.003 65.497 110.044 65.5125C110.086 65.5264 110.127 65.5403 110.165 65.5542C110.203 65.5666 110.231 65.5774 110.25 65.5867C110.26 65.5913 110.271 65.599 110.283 65.6098C110.294 65.6207 110.306 65.6323 110.318 65.6446C110.33 65.657 110.342 65.6693 110.354 65.6817C110.368 65.6941 110.38 65.7034 110.39 65.7095C110.435 65.7451 110.47 65.7752 110.496 65.7999C110.525 65.8231 110.546 65.8471 110.561 65.8718C110.577 65.895 110.588 65.9228 110.593 65.9553C110.598 65.9862 110.6 66.0264 110.6 66.0758C110.6 66.1067 110.598 66.1361 110.593 66.1639C110.588 66.1917 110.576 66.2188 110.557 66.245C110.552 66.2512 110.538 66.2559 110.514 66.259C110.491 66.262 110.473 66.2675 110.461 66.2752C110.447 66.2845 110.437 66.293 110.432 66.3007C110.428 66.3084 110.422 66.3146 110.414 66.3192C110.41 66.3239 110.4 66.3277 110.386 66.3308C110.372 66.3339 110.348 66.3355 110.315 66.3355Z" fill="#49B0EA"/>
<path d="M110.315 66.3355C110.241 66.3355 110.173 66.3215 110.111 66.2937C110.052 66.2659 109.996 66.2389 109.944 66.2126V66.1987C109.946 66.157 109.934 66.116 109.908 66.0758C109.882 66.0356 109.846 66.0001 109.801 65.9692C109.756 65.9367 109.703 65.9112 109.641 65.8927C109.579 65.8726 109.514 65.8625 109.445 65.8625C109.39 65.8625 109.342 65.8741 109.302 65.8973C109.264 65.9205 109.232 65.9491 109.206 65.9831C109.18 66.0155 109.161 66.0503 109.149 66.0874C109.137 66.1245 109.131 66.157 109.131 66.1848C109.131 66.2327 109.153 66.2713 109.199 66.3007C109.244 66.33 109.297 66.3548 109.359 66.3749C109.423 66.395 109.489 66.4127 109.555 66.4282C109.624 66.4421 109.682 66.4575 109.73 66.4745C109.77 66.4885 109.806 66.5062 109.837 66.5279C109.868 66.548 109.903 66.5665 109.944 66.5835C109.984 66.6005 110.026 66.6144 110.069 66.6252C110.111 66.6361 110.154 66.6476 110.197 66.66C110.209 66.6816 110.231 66.7002 110.265 66.7156C110.298 66.7296 110.324 66.7473 110.343 66.769C110.35 66.7767 110.361 66.7952 110.375 66.8246C110.392 66.854 110.407 66.8856 110.422 66.9196C110.438 66.9521 110.453 66.9838 110.464 67.0147C110.476 67.0441 110.482 67.0634 110.482 67.0727C110.482 67.1005 110.475 67.1314 110.461 67.1654C110.447 67.1994 110.429 67.2342 110.407 67.2697C110.386 67.3037 110.362 67.3369 110.336 67.3694C110.312 67.4018 110.291 67.4312 110.272 67.4575C110.236 67.4606 110.205 67.4683 110.179 67.4807C110.155 67.4915 110.132 67.5038 110.108 67.5178C110.084 67.5301 110.058 67.5409 110.029 67.5502C110.001 67.5595 109.964 67.5633 109.919 67.5618C109.878 67.5788 109.84 67.5981 109.805 67.6198C109.771 67.6398 109.732 67.6568 109.687 67.6708V67.9605C109.687 68.0749 109.685 68.1877 109.68 68.299C109.678 68.4103 109.67 68.5223 109.659 68.6351C109.58 68.6784 109.49 68.7 109.388 68.7C109.314 68.7 109.245 68.6877 109.181 68.663C109.117 68.6382 109.071 68.6035 109.045 68.5586C109.062 68.4999 109.071 68.4381 109.074 68.3732C109.076 68.3098 109.079 68.2457 109.081 68.1808C109.086 68.1159 109.094 68.0533 109.106 67.993C109.12 67.9312 109.149 67.874 109.191 67.8214C109.18 67.8137 109.171 67.8052 109.167 67.7959C109.162 67.7851 109.159 67.7751 109.159 67.7658C109.159 67.7457 109.164 67.7272 109.174 67.7102C109.186 67.6916 109.199 67.6738 109.213 67.6568C109.208 67.6507 109.182 67.6391 109.134 67.6221C109.089 67.6051 109.038 67.5873 108.981 67.5688C108.924 67.5502 108.869 67.534 108.817 67.5201C108.765 67.5062 108.732 67.4992 108.717 67.4992C108.71 67.476 108.695 67.4575 108.671 67.4436C108.647 67.4281 108.622 67.4127 108.596 67.3972C108.572 67.3802 108.551 67.3601 108.532 67.3369C108.513 67.3122 108.503 67.279 108.503 67.2372C108.503 67.2187 108.504 67.1994 108.507 67.1793C108.512 67.1592 108.52 67.1391 108.532 67.119C108.57 67.0927 108.614 67.0727 108.664 67.0587C108.716 67.0448 108.77 67.0379 108.824 67.0379C108.896 67.0379 108.961 67.0479 109.02 67.068C109.082 67.0866 109.139 67.1074 109.191 67.1306C109.244 67.1538 109.293 67.1754 109.338 67.1955C109.383 67.2141 109.426 67.2233 109.466 67.2233C109.535 67.2233 109.592 67.211 109.637 67.1862C109.685 67.16 109.708 67.1252 109.708 67.0819C109.708 67.0433 109.7 67.0139 109.684 66.9938C109.667 66.9737 109.647 66.9575 109.623 66.9451C109.599 66.9328 109.573 66.9212 109.544 66.9104C109.518 66.8996 109.496 66.8826 109.477 66.8594C109.432 66.8547 109.391 66.8478 109.355 66.8385C109.32 66.8292 109.279 66.8246 109.234 66.8246C109.213 66.8153 109.197 66.8068 109.188 66.7991C109.181 66.7898 109.174 66.7821 109.167 66.7759C109.159 66.7697 109.149 66.7651 109.134 66.762C109.12 66.7574 109.098 66.7551 109.067 66.7551C109.057 66.7551 109.044 66.752 109.027 66.7458C109.011 66.7396 108.992 66.7326 108.97 66.7249C108.949 66.7156 108.925 66.7079 108.899 66.7017C108.875 66.694 108.853 66.6894 108.831 66.6878C108.805 66.6523 108.767 66.6221 108.717 66.5974C108.667 66.5727 108.621 66.5472 108.578 66.5209V66.507C108.581 66.4776 108.572 66.4514 108.553 66.4282C108.537 66.4035 108.516 66.3787 108.493 66.354C108.471 66.3293 108.45 66.303 108.428 66.2752C108.409 66.2458 108.4 66.211 108.4 66.1709C108.4 66.123 108.408 66.0766 108.425 66.0318C108.442 65.9854 108.453 65.9398 108.461 65.895C108.463 65.8734 108.47 65.8556 108.482 65.8417C108.496 65.8262 108.51 65.8123 108.525 65.7999C108.541 65.786 108.554 65.7714 108.564 65.7559C108.576 65.7389 108.581 65.7188 108.578 65.6956C108.645 65.6724 108.699 65.6454 108.742 65.6145C108.785 65.5836 108.828 65.555 108.871 65.5287C108.913 65.5024 108.963 65.4808 109.02 65.4638C109.08 65.4468 109.158 65.4414 109.256 65.4476C109.275 65.4337 109.284 65.4182 109.284 65.4012C109.284 65.3827 109.284 65.3633 109.284 65.3433C109.284 65.2583 109.288 65.1725 109.295 65.0859C109.302 64.9978 109.306 64.9097 109.306 64.8217C109.306 64.7737 109.301 64.7258 109.291 64.6779C109.282 64.6285 109.277 64.5798 109.277 64.5319C109.277 64.467 109.303 64.4121 109.355 64.3673C109.41 64.3225 109.491 64.3 109.598 64.3C109.693 64.3 109.76 64.3085 109.798 64.3255C109.838 64.341 109.865 64.3611 109.88 64.3858C109.896 64.4106 109.909 64.4384 109.919 64.4693C109.928 64.5002 109.951 64.5303 109.987 64.5597C109.96 64.6138 109.947 64.6671 109.947 64.7196C109.95 64.7706 109.949 64.8255 109.944 64.8842C109.944 64.8982 109.939 64.9128 109.93 64.9283C109.922 64.9437 109.919 64.9592 109.919 64.9747C109.919 64.9917 109.922 65.0079 109.93 65.0233C109.939 65.0372 109.944 65.0527 109.944 65.0697C109.944 65.0821 109.937 65.0967 109.922 65.1137C109.911 65.1292 109.902 65.1439 109.897 65.1578C109.886 65.2026 109.881 65.249 109.883 65.2969C109.888 65.3433 109.883 65.3888 109.869 65.4337C109.878 65.4429 109.9 65.4545 109.933 65.4684C109.966 65.4823 110.003 65.497 110.044 65.5125C110.086 65.5264 110.127 65.5403 110.165 65.5542C110.203 65.5666 110.231 65.5774 110.25 65.5867C110.26 65.5913 110.271 65.599 110.283 65.6098C110.294 65.6207 110.306 65.6323 110.318 65.6446C110.33 65.657 110.342 65.6693 110.354 65.6817C110.368 65.6941 110.38 65.7034 110.39 65.7095C110.435 65.7451 110.47 65.7752 110.496 65.7999C110.525 65.8231 110.546 65.8471 110.561 65.8718C110.577 65.895 110.588 65.9228 110.593 65.9553C110.598 65.9862 110.6 66.0264 110.6 66.0758C110.6 66.1067 110.598 66.1361 110.593 66.1639C110.588 66.1917 110.576 66.2188 110.557 66.245C110.552 66.2512 110.538 66.2559 110.514 66.259C110.491 66.262 110.473 66.2675 110.461 66.2752C110.447 66.2845 110.437 66.293 110.432 66.3007C110.428 66.3084 110.422 66.3146 110.414 66.3192C110.41 66.3239 110.4 66.3277 110.386 66.3308C110.372 66.3339 110.348 66.3355 110.315 66.3355Z" stroke="white" stroke-width="2" mask="url(#path-84-outside-2_248_10787)"/>
<path d="M106.841 56.2566C106.841 59.8131 103.91 62.7095 100.277 62.7095C96.6452 62.7095 93.7141 59.8131 93.7141 56.2566C93.7141 52.7002 96.6452 49.8037 100.277 49.8037C103.91 49.8037 106.841 52.7002 106.841 56.2566Z" fill="white" stroke="white"/>
<path d="M102.259 57.4261C102.259 57.4713 102.252 57.5213 102.239 57.5762C102.229 57.6278 102.216 57.6811 102.2 57.7359C102.184 57.7876 102.167 57.8392 102.148 57.8908C102.13 57.9425 102.113 57.9893 102.097 58.0312L102.042 58.0942C102.042 58.1135 102.043 58.1313 102.046 58.1474C102.048 58.1636 102.05 58.1813 102.05 58.2007C102.05 58.2071 102.045 58.2184 102.034 58.2346C102.026 58.2507 102.016 58.2685 102.002 58.2878C101.992 58.304 101.98 58.3217 101.967 58.3411C101.956 58.3572 101.95 58.3701 101.947 58.3798C101.931 58.4056 101.912 58.4427 101.888 58.4911C101.864 58.5363 101.839 58.5847 101.813 58.6364C101.789 58.6848 101.764 58.73 101.738 58.7719C101.714 58.8139 101.695 58.8413 101.679 58.8542C101.663 58.8704 101.646 58.8784 101.627 58.8784C101.612 58.8784 101.593 58.8833 101.572 58.893C101.546 58.9059 101.522 58.9204 101.501 58.9365C101.48 58.9494 101.459 58.9607 101.438 58.9704C101.417 58.9801 101.395 58.9865 101.371 58.9898C101.347 58.993 101.321 58.9914 101.292 58.9849C101.26 58.9946 101.231 59.0108 101.205 59.0333C101.179 59.0527 101.151 59.0753 101.122 59.1011C101.096 59.1237 101.068 59.1463 101.039 59.1689C101.013 59.1883 100.984 59.2028 100.953 59.2125C100.887 59.2318 100.813 59.2463 100.732 59.256C100.65 59.2657 100.575 59.2706 100.507 59.2706C100.493 59.2706 100.48 59.2706 100.467 59.2706C100.454 59.2673 100.443 59.2576 100.436 59.2415C100.407 59.2415 100.379 59.2463 100.353 59.256C100.329 59.2657 100.305 59.2706 100.282 59.2706C100.245 59.2706 100.208 59.2625 100.171 59.2463C100.137 59.227 100.101 59.206 100.065 59.1834C100.03 59.1608 99.9935 59.1431 99.9541 59.1302C99.9146 59.114 99.8725 59.1076 99.8278 59.1108C99.8278 59.1076 99.812 59.0866 99.7804 59.0479C99.7488 59.0059 99.7094 58.9559 99.662 58.8978C99.6173 58.8365 99.566 58.7719 99.5081 58.7041C99.4528 58.6331 99.4002 58.5686 99.3502 58.5105C99.3029 58.4492 99.2608 58.3975 99.2239 58.3556C99.1871 58.3104 99.1647 58.2846 99.1568 58.2781V58.2588C99.1595 58.2168 99.1516 58.1732 99.1331 58.1281C99.1147 58.0797 99.0937 58.0345 99.07 57.9925C99.049 57.9473 99.0279 57.9086 99.0069 57.8763C98.9858 57.8441 98.974 57.8198 98.9713 57.8037C98.9555 57.7456 98.9332 57.6746 98.9042 57.5907C98.8753 57.5068 98.8464 57.439 98.8174 57.3874C98.749 57.3777 98.6806 57.3761 98.6122 57.3825C98.5438 57.3858 98.478 57.3874 98.4148 57.3874C98.3385 57.3874 98.2675 57.3825 98.2017 57.3729C98.1359 57.3599 98.0767 57.3357 98.0241 57.3002C97.9741 57.2615 97.9347 57.2099 97.9057 57.1453C97.8768 57.0775 97.8623 56.9872 97.8623 56.8742C97.8623 56.7645 97.8899 56.6709 97.9452 56.5934C98.0004 56.516 98.0728 56.4773 98.1623 56.4773C98.2228 56.4773 98.2833 56.4853 98.3438 56.5015C98.4043 56.5176 98.4648 56.5257 98.5254 56.5257C98.5938 56.5257 98.6556 56.5063 98.7108 56.4676V56.4385C98.7135 56.3772 98.7003 56.3336 98.6714 56.3078C98.6451 56.282 98.6122 56.2643 98.5727 56.2546C98.5332 56.2417 98.4925 56.232 98.4504 56.2255C98.4083 56.2158 98.3741 56.1997 98.3478 56.1771C98.332 56.119 98.3096 56.0561 98.2807 55.9883C98.2517 55.9205 98.2372 55.8544 98.2372 55.7898C98.2372 55.7414 98.2465 55.7027 98.2649 55.6736C98.2859 55.6446 98.303 55.6075 98.3162 55.5623H98.3714C98.4109 55.5171 98.4385 55.4832 98.4543 55.4606C98.4727 55.4348 98.4898 55.4171 98.5056 55.4074C98.5214 55.3945 98.5425 55.388 98.5688 55.388C98.5951 55.3848 98.6398 55.3832 98.703 55.3832C98.7687 55.3832 98.8108 55.3751 98.8293 55.359C98.8503 55.3396 98.8608 55.317 98.8608 55.2912C98.8608 55.2654 98.8595 55.2396 98.8569 55.2137C98.8542 55.1879 98.8648 55.1653 98.8885 55.146C98.8885 55.1395 98.8871 55.1347 98.8845 55.1314C98.8819 55.1282 98.8806 55.1234 98.8806 55.1169C98.8806 55.104 98.8845 55.0959 98.8924 55.0927C98.9003 55.0863 98.9095 55.083 98.92 55.083C98.9306 55.0798 98.9398 55.0766 98.9477 55.0733C98.9582 55.0701 98.9661 55.0653 98.9713 55.0588C98.974 55.0556 98.9792 55.0395 98.9871 55.0104C98.995 54.9781 99.0042 54.9426 99.0147 54.9039C99.0253 54.862 99.0358 54.8216 99.0463 54.7829C99.0568 54.7442 99.0661 54.7167 99.0739 54.7006L99.1253 54.6715C99.1253 54.6328 99.1266 54.6102 99.1292 54.6038C99.1345 54.5941 99.1397 54.5909 99.145 54.5941C99.1529 54.5941 99.1608 54.5957 99.1687 54.5989C99.1792 54.5989 99.191 54.5909 99.2042 54.5747C99.2121 54.5618 99.216 54.5457 99.216 54.5263C99.216 54.5069 99.22 54.4924 99.2279 54.4827C99.2647 54.4117 99.3068 54.3504 99.3542 54.2988C99.4042 54.2439 99.441 54.1761 99.4647 54.0955H99.4805C99.4989 54.0987 99.5199 54.0906 99.5436 54.0712C99.5699 54.0519 99.5962 54.0293 99.6225 54.0035C99.6489 53.9744 99.6738 53.947 99.6975 53.9212C99.7212 53.8954 99.7409 53.8776 99.7567 53.8679C99.7725 53.8582 99.7896 53.8534 99.808 53.8534C99.8265 53.8534 99.8436 53.8486 99.8593 53.8389C99.933 53.7872 100.001 53.7324 100.065 53.6743C100.128 53.6162 100.197 53.5645 100.274 53.5194C100.279 53.5194 100.284 53.5161 100.29 53.5097C100.295 53.5032 100.3 53.5 100.305 53.5C100.321 53.5 100.329 53.5065 100.329 53.5194C100.35 53.5258 100.37 53.529 100.388 53.529C100.409 53.529 100.43 53.529 100.451 53.529C100.491 53.529 100.532 53.5258 100.574 53.5194C100.618 53.5129 100.663 53.5097 100.708 53.5097C100.763 53.5097 100.814 53.5194 100.862 53.5387C100.909 53.5581 100.955 53.5823 101 53.6113C101.047 53.6372 101.095 53.663 101.142 53.6888C101.189 53.7114 101.239 53.7275 101.292 53.7372C101.292 53.7566 101.31 53.7856 101.347 53.8244C101.384 53.8631 101.426 53.9018 101.474 53.9405C101.521 53.9793 101.567 54.0148 101.612 54.047C101.659 54.0761 101.692 54.0922 101.71 54.0955C101.726 54.1374 101.746 54.1745 101.77 54.2068C101.796 54.2391 101.821 54.2713 101.845 54.3036C101.868 54.3359 101.889 54.3714 101.908 54.4101C101.926 54.4456 101.939 54.4892 101.947 54.5408C101.979 54.5634 102.004 54.5941 102.022 54.6328C102.043 54.6683 102.068 54.7006 102.097 54.7296C102.092 54.7425 102.089 54.7635 102.089 54.7926C102.089 54.8248 102.096 54.8571 102.109 54.8894C102.125 54.9184 102.141 54.9523 102.156 54.991C102.175 55.0298 102.191 55.075 102.204 55.1266C102.219 55.1782 102.227 55.2379 102.227 55.3057C102.227 55.409 102.214 55.509 102.188 55.6059C102.162 55.7027 102.131 55.7979 102.097 55.8915C102.042 55.9076 101.987 55.9334 101.931 55.9689C101.876 56.0044 101.818 56.0222 101.758 56.0222C101.713 56.0222 101.671 56.0077 101.631 55.9786L101.608 55.9205C101.568 55.8979 101.527 55.8528 101.485 55.785C101.446 55.714 101.409 55.6365 101.375 55.5526C101.343 55.4687 101.317 55.3864 101.296 55.3057C101.278 55.2218 101.268 55.1556 101.268 55.1072C101.268 55.0879 101.255 55.0588 101.229 55.0201C101.203 54.9781 101.172 54.9346 101.138 54.8894C101.107 54.8442 101.074 54.799 101.039 54.7538C101.008 54.7087 100.987 54.6715 100.976 54.6425C100.945 54.6425 100.913 54.636 100.882 54.6231C100.85 54.6102 100.818 54.5957 100.787 54.5796C100.758 54.5602 100.73 54.5441 100.704 54.5311C100.678 54.5182 100.653 54.5118 100.629 54.5118C100.608 54.5118 100.587 54.5166 100.566 54.5263C100.547 54.536 100.528 54.5408 100.507 54.5408C100.486 54.5408 100.466 54.536 100.447 54.5263C100.432 54.5166 100.413 54.5118 100.392 54.5118C100.34 54.5118 100.271 54.5441 100.187 54.6086C100.105 54.6732 100.025 54.7522 99.9462 54.8458C99.8672 54.9362 99.7988 55.0298 99.7409 55.1266C99.6831 55.2234 99.6528 55.3057 99.6502 55.3735C99.6607 55.4154 99.6791 55.4364 99.7054 55.4364C99.7265 55.4364 99.7462 55.4316 99.7646 55.4219C99.7857 55.4122 99.8067 55.4074 99.8278 55.4074C99.8646 55.4074 99.8988 55.4122 99.9304 55.4219C99.9646 55.4316 100 55.4364 100.037 55.4364C100.066 55.4364 100.094 55.4316 100.12 55.4219C100.149 55.4122 100.178 55.4074 100.207 55.4074C100.296 55.4074 100.391 55.43 100.491 55.4752C100.593 55.5203 100.676 55.5833 100.739 55.664C100.745 55.6801 100.747 55.6946 100.747 55.7075C100.747 55.7204 100.747 55.7317 100.747 55.7414C100.747 55.8156 100.729 55.8883 100.692 55.9593C100.658 56.0303 100.613 56.0932 100.558 56.1481C100.505 56.2029 100.447 56.2481 100.384 56.2836C100.321 56.3191 100.262 56.3369 100.207 56.3369C100.167 56.3369 100.128 56.3256 100.088 56.303C100.051 56.2804 100.013 56.2691 99.9738 56.2691C99.9501 56.2691 99.9251 56.2739 99.8988 56.2836C99.8751 56.2933 99.8515 56.2981 99.8278 56.2981C99.783 56.2981 99.7383 56.2917 99.6936 56.2788C99.6489 56.2659 99.6015 56.2594 99.5515 56.2594C99.5436 56.2594 99.5344 56.261 99.5239 56.2643C99.5133 56.2675 99.5015 56.2691 99.4884 56.2691V56.3369C99.4884 56.4079 99.5068 56.4547 99.5436 56.4773C99.5804 56.4998 99.6265 56.5176 99.6817 56.5305C99.737 56.5402 99.7975 56.5547 99.8633 56.5741C99.9317 56.5902 99.9975 56.6273 100.061 56.6854C100.095 56.7145 100.125 56.7451 100.151 56.7774C100.178 56.8097 100.191 56.8516 100.191 56.9033C100.191 56.9775 100.169 57.0404 100.124 57.0921C100.082 57.1405 100.03 57.1824 99.9699 57.2179C99.9093 57.2534 99.8462 57.2841 99.7804 57.3099C99.7173 57.3357 99.666 57.3616 99.6265 57.3874C99.6344 57.4519 99.6515 57.5132 99.6778 57.5713C99.7041 57.6262 99.7304 57.6843 99.7567 57.7456C99.7909 57.8328 99.8383 57.9102 99.8988 57.978C99.962 58.0458 100.032 58.1039 100.108 58.1523C100.184 58.1975 100.263 58.233 100.345 58.2588C100.429 58.2814 100.509 58.2927 100.586 58.2927C100.675 58.2927 100.749 58.2878 100.807 58.2781C100.864 58.2652 100.916 58.2442 100.96 58.2152C101.008 58.1862 101.053 58.1474 101.095 58.099C101.137 58.0474 101.185 57.9828 101.241 57.9054C101.275 57.8537 101.308 57.8086 101.339 57.7698C101.371 57.7279 101.397 57.6762 101.418 57.6149C101.437 57.5665 101.447 57.5181 101.45 57.4697C101.453 57.4213 101.462 57.3745 101.477 57.3293C101.485 57.2873 101.497 57.2486 101.513 57.2131C101.531 57.1776 101.543 57.1405 101.549 57.1018C101.575 57.0985 101.596 57.0888 101.612 57.0727C101.63 57.0533 101.647 57.034 101.663 57.0146C101.681 56.992 101.704 56.9727 101.73 56.9565C101.756 56.9404 101.793 56.9323 101.841 56.9323C101.906 56.9323 101.968 56.9485 102.026 56.9807C102.084 57.0098 102.143 57.0404 102.204 57.0727C102.212 57.1308 102.222 57.1905 102.235 57.2518C102.251 57.3099 102.259 57.368 102.259 57.4261Z" fill="#49B0EA"/>
</g>
<defs>
<filter id="filter0_d_248_10787" x="0" y="0" width="158" height="158" filterUnits="userSpaceOnUse" color-interpolation-filters="sRGB">
<feFlood flood-opacity="0" result="BackgroundImageFix"/>
<feColorMatrix in="SourceAlpha" type="matrix" values="0 0 0 0 0 0 0 0 0 0 0 0 0 0 0 0 0 0 127 0" result="hardAlpha"/>
<feOffset dx="4" dy="4"/>
<feGaussianBlur stdDeviation="2"/>
<feComposite in2="hardAlpha" operator="out"/>
<feColorMatrix type="matrix" values="0 0 0 0 0 0 0 0 0 0 0 0 0 0 0 0 0 0 0.25 0"/>
<feBlend mode="normal" in2="BackgroundImageFix" result="effect1_dropShadow_248_10787"/>
<feBlend mode="normal" in="SourceGraphic" in2="effect1_dropShadow_248_10787" result="shape"/>
</filter>
<clipPath id="clip0_248_10787">
<rect width="150" height="150" fill="white"/>
</clipPath>
</defs>
</svg>
