<svg width="27" height="25" viewBox="0 0 27 25" fill="none" xmlns="http://www.w3.org/2000/svg">
<path d="M22.994 2.24022C23.0652 2.49527 23.1012 2.75818 23.1012 3.02224L23.101 6.04398L23.1922 6.04581C24.8753 6.10538 26.2207 7.43441 26.2207 9.06521V21.1512C26.2207 22.8199 24.812 24.1726 23.0742 24.1726H3.14648C1.40873 24.1726 0 22.8199 0 21.1512V9.06521L0.00180824 8.9618L0.00637497 8.87131C-0.0862642 7.46475 0.860918 6.14403 2.33289 5.76529L19.1404 0.103705C20.8189 -0.328192 22.5443 0.628358 22.994 2.24022ZM23.0742 8.05805H3.14648C2.59356 8.05805 2.14057 8.46891 2.10053 8.99004L2.09766 9.06521V21.1512C2.09766 21.6821 2.52551 22.1171 3.06821 22.1556L3.14648 22.1583H23.0742C23.6271 22.1583 24.0801 21.7475 24.1202 21.2263L24.123 21.1512V9.06521C24.123 8.53425 23.6952 8.09926 23.1525 8.06081L23.0742 8.05805ZM17.8301 13.0939C18.9886 13.0939 19.9277 13.9957 19.9277 15.1082C19.9277 16.2207 18.9886 17.1225 17.8301 17.1225C16.6716 17.1225 15.7324 16.2207 15.7324 15.1082C15.7324 13.9957 16.6716 13.0939 17.8301 13.0939ZM19.7596 2.03261L19.7349 2.03799L7.8438 6.04347H21.0034L21.0036 3.02224C21.0036 2.96356 20.9982 2.90505 20.9876 2.84737L20.9678 2.76156C20.8247 2.2487 20.2942 1.93486 19.7596 2.03261Z" fill="#4E28E9"/>
</svg>
