<svg width="26" height="25" viewBox="0 0 26 25" fill="none" xmlns="http://www.w3.org/2000/svg">
<path fill-rule="evenodd" clip-rule="evenodd" d="M3 6.84714C1.34315 6.84714 0 8.15902 0 9.77732V21.498C0 23.1163 1.34315 24.4282 3 24.4282H23C24.6569 24.4282 26 23.1163 26 21.498V9.77732C26 8.15902 24.6569 6.84714 23 6.84714H3ZM18 17.5911C19.1046 17.5911 20 16.7165 20 15.6377C20 14.5588 19.1046 13.6842 18 13.6842C16.8954 13.6842 16 14.5588 16 15.6377C16 16.7165 16.8954 17.5911 18 17.5911Z" fill="#14135B"/>
<path d="M17.3858 0.640689C19.3564 -0.129204 21.5 1.28829 21.5 3.36129V5.87041H4L17.3858 0.640689Z" fill="#14135B"/>
</svg>
