<svg width="24" height="22" viewBox="0 0 24 22" fill="none" xmlns="http://www.w3.org/2000/svg">
<path fill-rule="evenodd" clip-rule="evenodd" d="M2.76923 5.884C1.23983 5.884 0 7.08657 0 8.57V19.314C0 20.7974 1.23983 22 2.76923 22H21.2308C22.7602 22 24 20.7974 24 19.314V8.57C24 7.08657 22.7602 5.884 21.2308 5.884H2.76923ZM16.6154 15.7327C17.635 15.7327 18.4615 14.931 18.4615 13.942C18.4615 12.953 17.635 12.1513 16.6154 12.1513C15.5958 12.1513 14.7692 12.953 14.7692 13.942C14.7692 14.931 15.5958 15.7327 16.6154 15.7327Z" fill="#14135B"/>
<path d="M16.0485 0.19476C17.8675 -0.510975 19.8462 0.788399 19.8462 2.68865V4.98867H3.69231L16.0485 0.19476Z" fill="#14135B"/>
</svg>
