<svg width="65" height="90" viewBox="0 0 65 90" fill="none" xmlns="http://www.w3.org/2000/svg">
<path d="M22 19.5C22 21.433 20.433 23 18.5 23C16.567 23 15 21.433 15 19.5C15 17.567 16.567 16 18.5 16C20.433 16 22 17.567 22 19.5Z" fill="#14135B"/>
<path d="M29 17.5C29 19.433 27.433 21 25.5 21C23.567 21 22 19.433 22 17.5C22 15.567 23.567 14 25.5 14C27.433 14 29 15.567 29 17.5Z" fill="#14135B"/>
<path d="M36 19.5C36 21.433 34.433 23 32.5 23C30.567 23 29 21.433 29 19.5C29 17.567 30.567 16 32.5 16C34.433 16 36 17.567 36 19.5Z" fill="#14135B"/>
<path d="M50 19.5C50 21.433 48.433 23 46.5 23C44.567 23 43 21.433 43 19.5C43 17.567 44.567 16 46.5 16C48.433 16 50 17.567 50 19.5Z" fill="#14135B"/>
<path d="M43 20.5C43 22.433 41.433 24 39.5 24C37.567 24 36 22.433 36 20.5C36 18.567 37.567 17 39.5 17C41.433 17 43 18.567 43 20.5Z" fill="#14135B"/>
<path d="M36 19.5C36 21.433 34.433 23 32.5 23C30.567 23 29 21.433 29 19.5C29 17.567 30.567 16 32.5 16C34.433 16 36 17.567 36 19.5Z" fill="#14135B"/>
<path d="M11.755 1L15.8929 10.1345L14.7961 10.734L10 1.95922L11.755 1Z" fill="#14135B"/>
<path d="M11.755 1L15.8929 10.1345L14.7961 10.734L10 1.95922L11.755 1Z" fill="#14135B"/>
<path d="M11.755 1L15.8929 10.1345L14.7961 10.734L10 1.95922L11.755 1Z" fill="#14135B"/>
<path d="M28.9699 0L29.9616 9.97893L28.7305 10.1952L27 0.346082L28.9699 0Z" fill="#14135B"/>
<path d="M28.9699 0L29.9616 9.97893L28.7305 10.1952L27 0.346082L28.9699 0Z" fill="#14135B"/>
<path d="M28.9699 0L29.9616 9.97893L28.7305 10.1952L27 0.346082L28.9699 0Z" fill="#14135B"/>
<path d="M36.5385 1.09277L35.7387 9.97915L36.9698 10.1955L38.5083 1.43886L36.5385 1.09277Z" fill="#14135B"/>
<path d="M36.5385 1.09277L35.7387 9.97915L36.9698 10.1955L38.5083 1.43886L36.5385 1.09277Z" fill="#14135B"/>
<path d="M36.5385 1.09277L35.7387 9.97915L36.9698 10.1955L38.5083 1.43886L36.5385 1.09277Z" fill="#14135B"/>
<path d="M52.7961 2L48.6581 11.1345L49.755 11.734L54.5511 2.95922L52.7961 2Z" fill="#14135B"/>
<path d="M52.7961 2L48.6581 11.1345L49.755 11.734L54.5511 2.95922L52.7961 2Z" fill="#14135B"/>
<path d="M52.7961 2L48.6581 11.1345L49.755 11.734L54.5511 2.95922L52.7961 2Z" fill="#14135B"/>
<path d="M19.1314 2.90063L20.4958 11.0653L21.7423 10.9718L21.1258 2.75107L19.1314 2.90063Z" fill="#14135B"/>
<path d="M19.1314 2.90063L20.4958 11.0653L21.7423 10.9718L21.1258 2.75107L19.1314 2.90063Z" fill="#14135B"/>
<path d="M19.1314 2.90063L20.4958 11.0653L21.7423 10.9718L21.1258 2.75107L19.1314 2.90063Z" fill="#14135B"/>
<path d="M45.6109 3.14941L44.2465 11.3141L43 11.2206L43.6165 2.99985L45.6109 3.14941Z" fill="#14135B"/>
<path d="M45.6109 3.14941L44.2465 11.3141L43 11.2206L43.6165 2.99985L45.6109 3.14941Z" fill="#14135B"/>
<path d="M45.6109 3.14941L44.2465 11.3141L43 11.2206L43.6165 2.99985L45.6109 3.14941Z" fill="#14135B"/>
<path d="M11.669 23.8145L53.1707 23.9109C53.1707 23.9109 56.4871 45.2686 50.625 53.5737C42.4181 65.2009 22.6117 65.1549 14.3512 53.4894C8.4508 45.157 11.669 23.8145 11.669 23.8145Z" fill="#14135B"/>
<path d="M22.2475 89.0562L42.6628 89.1036C42.6628 89.1036 37.1085 82.5142 34.2113 80.689C30.1551 78.1338 34.7047 78.1443 30.6603 80.6808C27.7714 82.4925 22.2475 89.0562 22.2475 89.0562Z" fill="#14135B"/>
<path d="M29.0338 55.2706L35.9507 55.2867L36.015 83.2166L29.0981 83.2005L29.0338 55.2706Z" fill="#14135B"/>
<path d="M2.6246 18L62.4843 18.9994L62.6235 28.6685L59.2291 26.1347L58.917 24.7893L5.51661 24.4183L7.62823 27.4725L3.16607 26.3813L2.6246 18Z" fill="#14135B"/>
<path d="M6.12667 18.4858L6.33562 25.1307C6.92237 25.1408 7.4522 25.2027 7.92512 25.3163C8.39804 25.43 8.80564 25.5598 9.14792 25.7059C9.49945 25.8407 9.77868 25.9715 9.9856 26.0985C10.1916 26.2151 10.3168 26.2922 10.3614 26.3297L9.71823 29.0647C9.66348 29.0281 9.50763 28.9537 9.25068 28.8416C9.00298 28.7183 8.69365 28.5953 8.32267 28.4726C7.96095 28.3387 7.55986 28.2238 7.11942 28.1281C6.68917 28.0314 6.26411 27.9913 5.84425 28.0079C4.74779 28.0431 3.91346 28.247 3.34128 28.6196C2.77929 28.9913 2.52806 29.5014 2.58758 30.15C2.61687 30.4692 2.70628 30.7155 2.85581 30.8891C3.0044 31.0523 3.247 31.176 3.58361 31.2603C3.93042 31.3436 4.39352 31.4063 4.9729 31.4482C5.55135 31.4798 6.28459 31.5184 7.17265 31.5641C7.97914 31.6169 8.65001 31.7597 9.18524 31.9924C9.71952 32.2147 10.151 32.4929 10.4797 32.827C10.8186 33.1602 11.064 33.5379 11.2158 33.9604C11.3769 34.3716 11.4772 34.7934 11.5169 35.2258C11.55 35.5862 11.5501 35.9235 11.5173 36.2378C11.4532 37.2191 11.0927 38.0504 10.4357 38.7315C9.789 39.4117 8.89212 39.8859 7.74507 40.1539L8.82541 47.3908L5.88265 47.7458L5.56121 40.3791C4.82985 40.3611 4.15305 40.2656 3.5308 40.0925C2.91874 39.9186 2.38172 39.7224 1.91974 39.504C1.45777 39.2856 1.08433 39.08 0.799436 38.8874C0.514542 38.6948 0.34887 38.5694 0.302424 38.5112L1.32594 36.225C1.68955 36.3795 2.08564 36.5519 2.5142 36.7422C2.94276 36.9324 3.39029 37.1054 3.85679 37.2612C4.33349 37.416 4.82264 37.5386 5.32426 37.6289C5.82492 37.709 6.33521 37.7259 6.85513 37.6797C7.43621 37.6281 7.90032 37.4778 8.24748 37.229C8.60483 36.9793 8.82163 36.6538 8.89787 36.2526C8.94446 35.8645 8.87393 35.5438 8.68625 35.2906C8.49858 35.0374 8.24984 34.8468 7.94003 34.7186C7.63947 34.5792 7.30239 34.4898 6.92878 34.4504C6.55422 34.4007 6.20799 34.3795 5.89007 34.387C2.4302 34.5389 0.505062 33.4956 0.114663 31.2573C-0.0218859 30.5532 -0.0364757 29.8902 0.070894 29.2683C0.188458 28.6455 0.40901 28.081 0.732549 27.5748C1.06628 27.0677 1.49885 26.6296 2.03026 26.2606C2.56166 25.8917 3.18312 25.6081 3.89464 25.4099L2.87807 18.8679L6.12667 18.4858Z" fill="#14135B"/>
<path d="M59.225 19.7763L58.7752 26.4059C58.1885 26.3888 57.6569 26.4261 57.1803 26.5178C56.7036 26.6095 56.2916 26.7203 55.9443 26.8504C55.5882 26.9688 55.3045 27.0866 55.0931 27.2039C54.8831 27.3109 54.7551 27.3821 54.7093 27.4175L55.2526 30.18C55.3087 30.146 55.4671 30.0789 55.7279 29.9788C55.9799 29.867 56.2934 29.7585 56.6685 29.653C57.0348 29.536 57.4397 29.4398 57.8833 29.3645C58.3167 29.2878 58.7428 29.2675 59.1617 29.3034C60.256 29.3894 61.0822 29.6317 61.6404 30.0305C62.1884 30.4279 62.4209 30.9493 62.3379 31.5946C62.2971 31.9121 62.1988 32.1541 62.0431 32.3206C61.8887 32.4768 61.6418 32.5892 61.3024 32.6578C60.9529 32.725 60.4879 32.7662 59.9075 32.7812C59.3284 32.786 58.5944 32.7907 57.7054 32.7951C56.8977 32.8106 56.2222 32.9222 55.679 33.1299C55.1371 33.3273 54.6958 33.5853 54.3553 33.9039C54.0046 34.2211 53.7457 34.5872 53.5787 35.0022C53.4029 35.4056 53.2873 35.8225 53.2319 36.2527C53.1858 36.6112 53.1735 36.9482 53.1948 37.2637C53.2233 38.2472 53.5533 39.0945 54.185 39.8055C54.8065 40.5151 55.6854 41.0303 56.8218 41.3512L55.4798 48.532L58.4072 49.023L58.9956 41.6774C59.727 41.6933 60.4067 41.6292 61.0347 41.4851C61.6526 41.3396 62.1963 41.1685 62.6658 40.9716C63.1353 40.7748 63.5159 40.5867 63.8075 40.4074C64.0992 40.2281 64.2693 40.1105 64.3178 40.0546L63.3781 37.7229C63.0092 37.8605 62.6072 38.0144 62.1721 38.1846C61.737 38.3549 61.2835 38.507 60.8118 38.641C60.3298 38.7736 59.8366 38.8735 59.3322 38.9405C58.829 38.9973 58.3186 38.9906 57.8008 38.9203C57.222 38.8418 56.7638 38.6702 56.4259 38.4055C56.0779 38.1395 55.8731 37.8043 55.8115 37.3999C55.779 37.0099 55.8611 36.6927 56.0578 36.4485C56.2546 36.2042 56.51 36.0252 56.8242 35.9115C57.1296 35.7862 57.4696 35.7124 57.8443 35.6903C58.2204 35.658 58.5671 35.6529 58.8845 35.6751C62.3359 35.987 64.2973 35.0338 64.7686 32.8154C64.9306 32.1183 64.9692 31.4565 64.8845 30.8302C64.7896 30.2024 64.5897 29.6282 64.2848 29.1074C63.9698 28.5853 63.5535 28.1276 63.0359 27.7343C62.5183 27.341 61.9077 27.0289 61.204 26.7979L62.457 20.3085L59.225 19.7763Z" fill="#14135B"/>
</svg>
