<svg width="121" height="91" viewBox="0 0 121 91" fill="none" xmlns="http://www.w3.org/2000/svg">
<path d="M52.0091 28.8H39V43.3H26.5V56.8H13.5V71.3H1.5V83.3H82" stroke="#14135B" stroke-width="2"/>
<path d="M66.7636 18.9417L108.265 19.0381C108.265 19.0381 111.582 40.3957 105.72 48.7008C97.5126 60.328 77.7062 60.282 69.4457 48.6166C63.5454 40.2841 66.7636 18.9417 66.7636 18.9417Z" fill="#14135B"/>
<path d="M77.3421 84.1833L97.7574 84.2307C97.7574 84.2307 92.2031 77.6414 89.3058 75.8162C85.2497 73.2609 89.7993 73.2715 85.7549 75.8079C82.866 77.6197 77.3421 84.1833 77.3421 84.1833Z" fill="#14135B"/>
<path d="M84.1284 50.3978L91.0453 50.4138L91.1096 78.3437L84.1926 78.3276L84.1284 50.3978Z" fill="#14135B"/>
<path d="M57.7192 13.1271L117.579 14.1265L117.718 23.7957L114.324 21.2619L114.012 19.9165L60.6112 19.5454L62.7228 22.5997L58.2606 21.5085L57.7192 13.1271Z" fill="#14135B"/>
<path d="M61.2212 13.6129L61.4302 20.2578C62.0169 20.2679 62.5468 20.3298 63.0197 20.4435C63.4926 20.5571 63.9002 20.687 64.2425 20.833C64.594 20.9678 64.8732 21.0987 65.0802 21.2256C65.2861 21.3422 65.4114 21.4193 65.456 21.4569L64.8128 24.1919C64.758 24.1552 64.6022 24.0809 64.3452 23.9688C64.0975 23.8455 63.7882 23.7225 63.4172 23.5998C63.0555 23.4658 62.6544 23.351 62.214 23.2552C61.7837 23.1585 61.3587 23.1185 60.9388 23.135C59.8423 23.1702 59.008 23.3741 58.4358 23.7467C57.8739 24.1184 57.6226 24.6286 57.6821 25.2772C57.7114 25.5963 57.8008 25.8427 57.9504 26.0162C58.099 26.1794 58.3416 26.3032 58.6782 26.3874C59.025 26.4708 59.4881 26.5334 60.0675 26.5753C60.6459 26.607 61.3792 26.6456 62.2672 26.6912C63.0737 26.7441 63.7446 26.8868 64.2798 27.1195C64.8141 27.3419 65.2456 27.6201 65.5743 27.9541C65.9132 28.2873 66.1585 28.6651 66.3104 29.0875C66.4714 29.4988 66.5718 29.9206 66.6115 30.353C66.6445 30.7133 66.6447 31.0506 66.6118 31.3649C66.5477 32.3463 66.1872 33.1775 65.5303 33.8587C64.8836 34.5389 63.9867 35.013 62.8396 35.281L63.92 42.5179L60.9772 42.8729L60.6558 35.5063C59.9244 35.4883 59.2476 35.3927 58.6254 35.2197C58.0133 35.0457 57.4763 34.8496 57.0143 34.6311C56.5523 34.4127 56.1789 34.2072 55.894 34.0146C55.6091 33.8219 55.4434 33.6965 55.397 33.6384L56.4205 31.3522C56.7841 31.5067 57.1802 31.6791 57.6088 31.8693C58.0373 32.0596 58.4849 32.2326 58.9514 32.3883C59.4281 32.5431 59.9172 32.6657 60.4188 32.7561C60.9195 32.8361 61.4298 32.8531 61.9497 32.8068C62.5308 32.7552 62.9949 32.605 63.342 32.3561C63.6994 32.1064 63.9162 31.781 63.9924 31.3798C64.039 30.9916 63.9685 30.6709 63.7808 30.4177C63.5931 30.1646 63.3444 29.9739 63.0346 29.8457C62.734 29.7064 62.3969 29.617 62.0233 29.5775C61.6488 29.5278 61.3025 29.5067 60.9846 29.5142C57.5248 29.666 55.5996 28.6228 55.2092 26.3844C55.0727 25.6804 55.0581 25.0174 55.1655 24.3955C55.283 23.7727 55.5036 23.2081 55.8271 22.7019C56.1608 22.1948 56.5934 21.7568 57.1248 21.3878C57.6562 21.0188 58.2777 20.7352 58.9892 20.537L57.9726 13.9951L61.2212 13.6129Z" fill="#14135B"/>
<path d="M114.32 14.9034L113.87 21.533C113.283 21.516 112.751 21.5533 112.275 21.645C111.798 21.7366 111.386 21.8475 111.039 21.9775C110.683 22.096 110.399 22.2138 110.188 22.331C109.978 22.438 109.85 22.5092 109.804 22.5447L110.347 25.3072C110.403 25.2731 110.562 25.206 110.822 25.1059C111.074 24.9942 111.388 24.8856 111.763 24.7802C112.129 24.6631 112.534 24.5669 112.978 24.4916C113.411 24.4149 113.837 24.3946 114.256 24.4306C115.351 24.5165 116.177 24.7589 116.735 25.1577C117.283 25.5551 117.515 26.0764 117.432 26.7217C117.392 27.0393 117.293 27.2813 117.138 27.4477C116.983 27.604 116.736 27.7164 116.397 27.785C116.047 27.8522 115.582 27.8933 115.002 27.9084C114.423 27.9132 113.689 27.9178 112.8 27.9223C111.992 27.9377 111.317 28.0493 110.774 28.257C110.232 28.4545 109.79 28.7125 109.45 29.031C109.099 29.3482 108.84 29.7143 108.673 30.1294C108.497 30.5328 108.382 30.9496 108.326 31.3798C108.28 31.7383 108.268 32.0753 108.289 32.3909C108.318 33.3744 108.648 34.2216 109.28 34.9326C109.901 35.6422 110.78 36.1575 111.916 36.4784L110.574 43.6592L113.502 44.1501L114.09 36.8046C114.822 36.8204 115.501 36.7563 116.129 36.6122C116.747 36.4668 117.291 36.2956 117.76 36.0988C118.23 35.9019 118.61 35.7139 118.902 35.5346C119.194 35.3553 119.364 35.2377 119.412 35.1817L118.473 32.8501C118.104 32.9876 117.702 33.1415 117.267 33.3117C116.832 33.482 116.378 33.6341 115.906 33.7681C115.424 33.9008 114.931 34.0006 114.427 34.0676C113.924 34.1244 113.413 34.1177 112.895 34.0475C112.317 33.969 111.858 33.7974 111.52 33.5327C111.172 33.2666 110.968 32.9314 110.906 32.527C110.874 32.137 110.956 31.8199 111.152 31.5756C111.349 31.3313 111.605 31.1523 111.919 31.0386C112.224 30.9133 112.564 30.8396 112.939 30.8175C113.315 30.7851 113.662 30.7801 113.979 30.8023C117.43 31.1142 119.392 30.1609 119.863 27.9425C120.025 27.2454 120.064 26.5837 119.979 25.9573C119.884 25.3296 119.684 24.7553 119.379 24.2346C119.064 23.7124 118.648 23.2547 118.13 22.8614C117.613 22.4681 117.002 22.156 116.299 21.9251L117.552 15.4357L114.32 14.9034Z" fill="#14135B"/>
<circle cx="72.5" cy="14.5" r="3.5" fill="#14135B"/>
<circle cx="79.5" cy="12.5" r="3.5" fill="#14135B"/>
<circle cx="86.5" cy="14.5" r="3.5" fill="#14135B"/>
<circle cx="100.5" cy="14.5" r="3.5" fill="#14135B"/>
<circle cx="93.5" cy="15.5" r="3.5" fill="#14135B"/>
<circle cx="86.5" cy="14.5" r="3.5" fill="#14135B"/>
<path d="M19.6797 57.1006C19.6797 57.1006 13.145 50.4074 9.29085 53.5905C4.31759 57.6979 4.67365 71.1409 4.67365 71.1409C4.67365 71.1409 3.68336 55.9665 8.13663 50.0805C11.8743 45.1403 19.6797 57.1006 19.6797 57.1006Z" fill="#49B0EA"/>
<path d="M33.5311 43.0605C33.5311 43.0605 28.1738 36.1636 24.3196 39.3468C19.3463 43.4542 19.7024 56.8972 19.7024 56.8972C19.7024 56.8972 17.5578 41.7227 22.011 35.8367C25.7487 30.8965 33.5311 43.0605 33.5311 43.0605Z" fill="#49B0EA"/>
<path d="M38.0357 22.8C38.0357 22.8 35.7646 25.2712 35 26.8C32.5551 31.6881 33.8954 43.3395 33.8954 43.3395C33.8954 43.3395 31.3437 30.7699 31.9643 26.3C32.5117 22.3573 35.6071 18.8 35.6071 18.8L38.0357 22.8Z" fill="#49B0EA"/>
<circle cx="38.5" cy="19.8" r="3.5" fill="#14135B"/>
</svg>
