<svg width="15" height="13" viewBox="0 0 15 13" fill="none" xmlns="http://www.w3.org/2000/svg">
<path d="M12.2245 9.89568C12.246 11.5446 9.56034 12.9077 6.22593 12.9403C2.89152 12.9729 0.170997 11.6626 0.149479 10.0137C0.12796 8.36479 -0.655897 5.54249 2.67852 5.5099C9.59798 6.93527 12.9993 3.16959 12.2245 9.89568Z" fill="#14135B"/>
<ellipse cx="6.03778" cy="2.98587" rx="6.03778" ry="2.98587" transform="matrix(0.999952 -0.00977302 0.0130491 0.999915 0.0715332 4.04248)" fill="#49B0EA"/>
<path d="M13.5099 7.84194C13.2439 9.47482 10.3516 10.4721 7.04958 10.0693C3.74758 9.6666 1.28636 8.01642 1.55228 6.38354C1.81821 4.75067 1.53487 1.85836 4.83687 2.26109C11.429 4.57275 15.4473 1.29376 13.5099 7.84194Z" fill="#14135B"/>
<ellipse cx="6.02309" cy="2.99554" rx="6.02309" ry="2.99554" transform="matrix(0.992644 0.121067 -0.160738 0.986997 2.51562 0.470459)" fill="#49B0EA"/>
</svg>
