<svg width="24" height="25" viewBox="0 0 24 25" fill="none" xmlns="http://www.w3.org/2000/svg">
<circle cx="12" cy="12.3828" r="11.1" stroke="#14135B" stroke-width="1.8"/>
<path d="M12 18.914C15.547 18.914 18.4 15.9999 18.4 12.433C18.4 8.86612 15.547 5.95205 12 5.95205C8.45302 5.95205 5.6 8.86612 5.6 12.433C5.6 15.9999 8.45302 18.914 12 18.914Z" stroke="#14135B" stroke-width="1.8"/>
<path d="M8.81723 8.65864L9.53032 9.1602C9.53032 9.1602 9.11279 9.3276 8.74734 9.72696C8.3219 10.1919 8.11281 10.7829 8.11281 10.7829L7.3861 10.6414C7.3861 10.6414 7.57049 9.91477 7.95195 9.40049C8.25636 8.99009 8.81723 8.65864 8.81723 8.65864Z" fill="#14135B"/>
<ellipse cx="1.04056" cy="0.68491" rx="1.04056" ry="0.68491" transform="matrix(0.994169 0.10572 -0.102753 0.994928 14.2233 9.24146)" fill="#14135B"/>
<mask id="mask0_332_3971" style="mask-type:alpha" maskUnits="userSpaceOnUse" x="14" y="9" width="3" height="2">
<ellipse cx="1.04056" cy="0.68491" rx="1.04056" ry="0.68491" transform="matrix(0.994169 0.10572 -0.102753 0.994928 14.2233 9.24146)" fill="#BC6D6D"/>
</mask>
<g mask="url(#mask0_332_3971)">
<ellipse cx="0.917015" cy="0.701305" rx="0.917015" ry="0.701305" transform="matrix(0.989491 0.142664 -0.138711 0.990605 14.6302 9.39526)" fill="#0C81D5"/>
<ellipse cx="15.6953" cy="10.2529" rx="0.601562" ry="0.436013" fill="#14135B"/>
</g>
<ellipse cx="1.04056" cy="0.68491" rx="1.04056" ry="0.68491" transform="matrix(0.994169 0.10572 -0.102753 0.994928 10.284 9.6167)" fill="#14135B"/>
<mask id="mask1_332_3971" style="mask-type:alpha" maskUnits="userSpaceOnUse" x="10" y="9" width="3" height="3">
<ellipse cx="1.04056" cy="0.68491" rx="1.04056" ry="0.68491" transform="matrix(0.994169 0.10572 -0.102753 0.994928 10.284 9.6167)" fill="#BC6D6D"/>
</mask>
<g mask="url(#mask1_332_3971)">
<ellipse cx="0.917015" cy="0.701305" rx="0.917015" ry="0.701305" transform="matrix(0.989491 0.142664 -0.138711 0.990605 10.691 9.77051)" fill="#0C81D5"/>
<ellipse cx="11.7425" cy="10.6018" rx="0.601562" ry="0.436013" fill="#14135B"/>
</g>
<path d="M15.437 12.5797C15.437 12.8433 14.3349 13.5344 13.5556 13.5344C12.7762 13.5344 11.6741 12.8434 11.6741 12.5798C11.6741 12.3162 12.7762 13.0569 13.5556 13.0569C14.3349 13.0569 15.437 12.3161 15.437 12.5797Z" fill="#14135B"/>
</svg>
