<svg width="15" height="17" viewBox="0 0 15 17" fill="none" xmlns="http://www.w3.org/2000/svg">
<path d="M12.2245 13.434C12.246 15.0829 9.56034 16.446 6.22593 16.4786C2.89152 16.5112 0.170997 15.2009 0.149479 13.552C0.12796 11.9031 -0.655897 9.08082 2.67852 9.04823C9.59798 10.4736 12.9993 6.70792 12.2245 13.434Z" fill="#2A3778"/>
<ellipse cx="6.03778" cy="2.98587" rx="6.03778" ry="2.98587" transform="matrix(0.999952 -0.00977302 0.0130491 0.999915 0.0715332 7.58081)" fill="#CFE0EA"/>
<path d="M13.5099 11.3803C13.2439 13.0131 10.3516 14.0104 7.04958 13.6077C3.74758 13.2049 1.28636 11.5547 1.55228 9.92187C1.81821 8.289 1.53487 5.39669 4.83687 5.79942C11.429 8.11108 15.4473 4.83209 13.5099 11.3803Z" fill="#2A3778"/>
<ellipse cx="6.02309" cy="2.99554" rx="6.02309" ry="2.99554" transform="matrix(0.992644 0.121067 -0.160738 0.986997 2.51562 4.00879)" fill="#CFE0EA"/>
<path d="M12.1704 6.5813C12.1575 8.23028 9.44383 9.55115 6.10928 9.53156C2.77473 9.51198 0.0820306 8.15934 0.0949658 6.51036C0.107901 4.86138 -0.616862 2.02728 2.71769 2.04687C9.60624 3.58028 13.0857 -0.131571 12.1704 6.5813Z" fill="#2A3778"/>
<ellipse cx="6.03784" cy="2.98583" rx="6.03784" ry="2.98583" transform="matrix(0.999983 0.00587465 -0.00784414 0.999969 0.141968 0.538818)" fill="#CFE0EA"/>
</svg>
